<svg width="16" height="16" viewBox="0 0 16 16" fill="none" xmlns="http://www.w3.org/2000/svg">
<path d="M6 12.8205C5.77434 12.8205 5.58117 12.7402 5.4205 12.5795C5.25984 12.4188 5.1795 12.2257 5.1795 12C5.1795 11.7743 5.25984 11.5812 5.4205 11.4205C5.58117 11.2598 5.77434 11.1795 6 11.1795C6.22567 11.1795 6.41884 11.2598 6.5795 11.4205C6.74017 11.5812 6.8205 11.7743 6.8205 12C6.8205 12.2257 6.74017 12.4188 6.5795 12.5795C6.41884 12.7402 6.22567 12.8205 6 12.8205ZM10 12.8205C9.77434 12.8205 9.58117 12.7402 9.4205 12.5795C9.25984 12.4188 9.17951 12.2257 9.17951 12C9.17951 11.7743 9.25984 11.5812 9.4205 11.4205C9.58117 11.2598 9.77434 11.1795 10 11.1795C10.2257 11.1795 10.4188 11.2598 10.5795 11.4205C10.7402 11.5812 10.8205 11.7743 10.8205 12C10.8205 12.2257 10.7402 12.4188 10.5795 12.5795C10.4188 12.7402 10.2257 12.8205 10 12.8205ZM6 8.8205C5.77434 8.8205 5.58117 8.74017 5.4205 8.5795C5.25984 8.41884 5.1795 8.22567 5.1795 8C5.1795 7.77434 5.25984 7.58117 5.4205 7.4205C5.58117 7.25984 5.77434 7.1795 6 7.1795C6.22567 7.1795 6.41884 7.25984 6.5795 7.4205C6.74017 7.58117 6.8205 7.77434 6.8205 8C6.8205 8.22567 6.74017 8.41884 6.5795 8.5795C6.41884 8.74017 6.22567 8.8205 6 8.8205ZM10 8.8205C9.77434 8.8205 9.58117 8.74017 9.4205 8.5795C9.25984 8.41884 9.17951 8.22567 9.17951 8C9.17951 7.77434 9.25984 7.58117 9.4205 7.4205C9.58117 7.25984 9.77434 7.1795 10 7.1795C10.2257 7.1795 10.4188 7.25984 10.5795 7.4205C10.7402 7.58117 10.8205 7.77434 10.8205 8C10.8205 8.22567 10.7402 8.41884 10.5795 8.5795C10.4188 8.74017 10.2257 8.8205 10 8.8205ZM6 4.8205C5.77434 4.8205 5.58117 4.74017 5.4205 4.5795C5.25984 4.41884 5.1795 4.22567 5.1795 4C5.1795 3.77434 5.25984 3.58117 5.4205 3.4205C5.58117 3.25984 5.77434 3.1795 6 3.1795C6.22567 3.1795 6.41884 3.25984 6.5795 3.4205C6.74017 3.58117 6.8205 3.77434 6.8205 4C6.8205 4.22567 6.74017 4.41884 6.5795 4.5795C6.41884 4.74017 6.22567 4.8205 6 4.8205ZM10 4.8205C9.77434 4.8205 9.58117 4.74017 9.4205 4.5795C9.25984 4.41884 9.17951 4.22567 9.17951 4C9.17951 3.77434 9.25984 3.58117 9.4205 3.4205C9.58117 3.25984 9.77434 3.1795 10 3.1795C10.2257 3.1795 10.4188 3.25984 10.5795 3.4205C10.7402 3.58117 10.8205 3.77434 10.8205 4C10.8205 4.22567 10.7402 4.41884 10.5795 4.5795C10.4188 4.74017 10.2257 4.8205 10 4.8205Z" fill="black"/>
</svg>
