<svg width="32" height="33" viewBox="0 0 32 33" fill="none" xmlns="http://www.w3.org/2000/svg">
<g id="placeholder">
<path id="Vector" d="M26 4.5H6C5.46957 4.5 4.96086 4.71071 4.58579 5.08579C4.21071 5.46086 4 5.96957 4 6.5V26.5C4 27.0304 4.21071 27.5391 4.58579 27.9142C4.96086 28.2893 5.46957 28.5 6 28.5H26C26.5304 28.5 27.0391 28.2893 27.4142 27.9142C27.7893 27.5391 28 27.0304 28 26.5V6.5C28 5.96957 27.7893 5.46086 27.4142 5.08579C27.0391 4.71071 26.5304 4.5 26 4.5ZM6 26.5V7.91375L24.5863 26.5H6ZM7.41375 6.5H26V25.0875L7.41375 6.5Z" fill="#666666"/>
</g>
</svg>
