<svg width="32" height="52" viewBox="0 0 32 52" fill="#fff" xmlns="http://www.w3.org/2000/svg">
<g id="Rolo">
<path id="Vector" fill-rule="evenodd" clip-rule="evenodd" d="M1.10137 8.93459H2.40925V44.9811H1.10137C0.80938 44.9814 0.529452 45.0976 0.322981 45.304C0.11651 45.5105 0.000357646 45.7904 0 46.0824V50.0757C0.000425411 50.3676 0.116608 50.6474 0.323075 50.8538C0.529542 51.0602 0.809436 51.1763 1.10137 51.1766H30.8985C31.1904 51.1763 31.4703 51.0602 31.6768 50.8538C31.8832 50.6474 31.9994 50.3676 31.9999 50.0757V46.0824C31.9995 45.7904 31.8834 45.5105 31.6769 45.304C31.4704 45.0976 31.1905 44.9814 30.8985 44.9811H29.5905V8.93459H30.8985C31.1906 8.93428 31.4706 8.8181 31.6771 8.61157C31.8836 8.40505 31.9997 8.12503 32 7.83298V3.83977C31.9996 3.54786 31.8834 3.26803 31.677 3.06162C31.4706 2.85521 31.1908 2.73906 30.8989 2.73864H21.898L21.0388 0.764857C20.9423 0.537394 20.7807 0.343482 20.5745 0.207426C20.3682 0.0713701 20.1263 -0.000791566 19.8792 6.54949e-06H12.1206C11.8749 0.000699253 11.6347 0.0728459 11.4293 0.207667C11.2238 0.342488 11.0621 0.534141 10.9636 0.7593L10.1022 2.73802H1.10137C0.809316 2.73839 0.529332 2.85458 0.322849 3.06114C0.116371 3.26769 0.000259764 3.5477 0 3.83977V7.8331C0.000293646 8.12512 0.11642 8.40511 0.322902 8.61161C0.529381 8.81811 0.80935 8.93428 1.10137 8.93459ZM28.9489 7.83714L1.09706 7.8331L1.10137 3.83521L10.4618 3.83581C10.5686 3.83575 10.6731 3.80453 10.7625 3.74598C10.8518 3.68745 10.9222 3.60411 10.9649 3.50619L11.9685 1.20019C11.9813 1.17025 12.0024 1.14465 12.0294 1.12648C12.0564 1.10832 12.0881 1.09835 12.1206 1.09781H19.8792C19.9115 1.09778 19.943 1.10728 19.9698 1.12514C19.9966 1.14298 20.0176 1.16837 20.03 1.1981L21.035 3.50619C21.0777 3.60411 21.148 3.68747 21.2374 3.74601C21.3267 3.80456 21.4312 3.83576 21.5381 3.83581H30.8997C30.9006 3.83629 30.9013 3.83697 30.9018 3.83778C30.9024 3.83861 30.9027 3.83953 30.9028 3.84051L30.8985 7.83742L29.1352 7.83717C29.1045 7.83187 29.0733 7.82919 29.042 7.82919C29.0107 7.82919 28.9796 7.83185 28.9489 7.83714ZM28.4935 8.93459V44.9811H3.50643V8.93459H28.4935ZM1.10137 46.0777L30.9028 46.0796C30.903 46.0807 30.903 46.0819 30.9028 46.0831L30.8985 50.08L1.09706 50.0757L1.10137 46.0777Z" fill="#1A1A1A"/>
</g>
</svg>
