<svg width="24" height="24" viewBox="0 0 24 24" fill="none" xmlns="http://www.w3.org/2000/svg">
<g id="add_2">
<mask id="mask0_236_227" style="mask-type:alpha" maskUnits="userSpaceOnUse" x="0" y="0" width="24" height="24">
<rect id="Bounding box" width="24" height="24" fill="#D9D9D9"/>
</mask>
<g mask="url(#mask0_236_227)">
<path id="add_2_2" d="M12 21.2305C11.6569 21.2305 11.3607 21.1058 11.1115 20.8565C10.8622 20.6072 10.7375 20.311 10.7375 19.968V13.2768H4.03203C3.68903 13.2768 3.39286 13.1521 3.14353 12.9028C2.8942 12.6534 2.76953 12.3573 2.76953 12.0143C2.76953 11.6711 2.8942 11.3748 3.14353 11.1255C3.39286 10.8762 3.68903 10.7515 4.03203 10.7515H10.7233V4.032C10.7233 3.689 10.8479 3.39283 11.0973 3.1435C11.3466 2.89417 11.6428 2.7695 11.9858 2.7695C12.3289 2.7695 12.6252 2.89417 12.8745 3.1435C13.1239 3.39283 13.2485 3.689 13.2485 4.032V10.7375H19.968C20.311 10.7375 20.6072 10.8622 20.8565 11.1115C21.1059 11.3607 21.2305 11.6568 21.2305 12C21.2305 12.3432 21.1059 12.6393 20.8565 12.8885C20.6072 13.1378 20.311 13.2625 19.968 13.2625H13.2625V19.968C13.2625 20.311 13.1379 20.6072 12.8885 20.8565C12.6394 21.1058 12.3432 21.2305 12 21.2305Z" fill="#1A1A1A"/>
</g>
</g>
</svg>
