<svg width="16" height="16" viewBox="0 0 16 16" fill="none" xmlns="http://www.w3.org/2000/svg">
<g id="arrow_drop_down_circle">
<mask id="mask0_71_929" style="mask-type:alpha" maskUnits="userSpaceOnUse" x="0" y="0" width="16" height="16">
<rect id="Bounding box" x="16" y="16" width="16" height="16" transform="rotate(-180 16 16)" fill="#D9D9D9"/>
</mask>
<g mask="url(#mask0_71_929)">
<path id="arrow_drop_down_circle_2" d="M8.29199 6.16084C8.2111 6.08095 8.11349 6.04101 7.99916 6.04101C7.88494 6.04101 7.78788 6.08095 7.70799 6.16084L5.80649 8.05284C5.67505 8.18429 5.64422 8.33745 5.71399 8.51234C5.78377 8.68723 5.91194 8.77468 6.09849 8.77468H9.90149C10.088 8.77468 10.2162 8.68723 10.286 8.51234C10.3558 8.33745 10.3249 8.18429 10.1935 8.05284L8.29199 6.16084ZM7.99999 1.17968C8.94922 1.17968 9.83794 1.35873 10.6662 1.71684C11.4944 2.07484 12.2149 2.56073 12.8277 3.17451C13.4403 3.78829 13.9256 4.5089 14.2835 5.33634C14.6414 6.16379 14.8203 7.05168 14.8203 8.00001C14.8203 8.94923 14.6413 9.83795 14.2832 10.6662C13.9252 11.4944 13.4393 12.2149 12.8255 12.8277C12.2117 13.4403 11.4911 13.9256 10.6637 14.2835C9.83622 14.6414 8.94833 14.8203 7.99999 14.8203C7.05077 14.8203 6.16205 14.6413 5.33383 14.2832C4.50561 13.9252 3.7851 13.4393 3.17233 12.8255C2.55966 12.2117 2.07438 11.4911 1.71649 10.6637C1.35861 9.83623 1.17966 8.94834 1.17966 8.00001C1.17966 7.05079 1.35872 6.16207 1.71683 5.33384C2.07483 4.50562 2.56072 3.78512 3.17449 3.17234C3.78827 2.55968 4.50888 2.0744 5.33633 1.71651C6.16377 1.35862 7.05166 1.17968 7.99999 1.17968ZM7.99999 2.86301C6.56399 2.86301 5.34883 3.36018 4.3545 4.35451C3.36016 5.34884 2.863 6.56401 2.863 8.00001C2.863 9.43601 3.36016 10.6512 4.3545 11.6455C5.34883 12.6398 6.56399 13.137 7.99999 13.137C9.43599 13.137 10.6512 12.6398 11.6455 11.6455C12.6398 10.6512 13.137 9.43601 13.137 8.00001C13.137 6.56401 12.6398 5.34884 11.6455 4.35451C10.6512 3.36018 9.43599 2.86301 7.99999 2.86301Z" fill="#006A04"/>
</g>
</g>
</svg>
