<svg width="16" height="16" viewBox="0 0 16 16" fill="none" xmlns="http://www.w3.org/2000/svg">
<g id="border_color">
<mask id="mask0_392_2203" style="mask-type:alpha" maskUnits="userSpaceOnUse" x="0" y="0" width="16" height="16">
<rect id="Bounding box" width="16" height="16" fill="#D9D9D9"/>
</mask>
<g mask="url(#mask0_392_2203)">
<path id="border_color_2" d="M2.82493 15.8584C2.43715 15.8584 2.10832 15.7217 1.83843 15.4485C1.56854 15.1753 1.43359 14.8447 1.43359 14.4569C1.43359 14.069 1.57009 13.7402 1.84309 13.4707C2.1162 13.2011 2.44659 13.0664 2.83426 13.0664H13.1756C13.5634 13.0664 13.8922 13.2014 14.1621 13.4714C14.432 13.7415 14.5669 14.0705 14.5669 14.4584C14.5669 14.8462 14.4304 15.1766 14.1574 15.4494C13.8843 15.722 13.5539 15.8584 13.1663 15.8584H2.82493ZM4.07276 10.425H4.79693L9.96109 5.27752L9.59593 4.90285L9.22959 4.53669L4.07276 9.70902V10.425ZM2.68143 10.9747V9.46502C2.68143 9.35035 2.70143 9.24302 2.74143 9.14302C2.78143 9.04302 2.84137 8.95235 2.92126 8.87102L10.2154 1.58402C10.3565 1.44302 10.5076 1.34035 10.6688 1.27602C10.8299 1.2118 10.9987 1.17969 11.1753 1.17969C11.352 1.17969 11.5253 1.21319 11.6949 1.28019C11.8647 1.3473 12.0191 1.44996 12.1583 1.58819L12.9154 2.32719C13.0545 2.46119 13.1566 2.61463 13.2216 2.78752C13.2866 2.9603 13.3191 3.13513 13.3191 3.31202C13.3191 3.49191 13.2882 3.66335 13.2264 3.82635C13.1645 3.98924 13.0634 4.14085 12.9231 4.28119L5.61843 11.5682C5.53843 11.6481 5.44854 11.7094 5.34876 11.7522C5.24898 11.795 5.14187 11.8164 5.02743 11.8164H3.52309C3.29432 11.8164 3.09687 11.7332 2.93076 11.567C2.76454 11.4008 2.68143 11.2034 2.68143 10.9747ZM9.96109 5.27752L9.59593 4.90285L9.22959 4.53669L9.96109 5.27752Z" fill="#1A1A1A"/>
</g>
</g>
</svg>
