<svg width="32" height="32" viewBox="0 0 32 32" fill="none" xmlns="http://www.w3.org/2000/svg">
<g id="camera_roll">
<mask id="mask0_236_218" style="mask-type:alpha" maskUnits="userSpaceOnUse" x="0" y="0" width="32" height="32">
<rect id="Bounding box" width="32" height="32" fill="#D9D9D9"/>
</mask>
<g mask="url(#mask0_236_218)">
<path id="camera_roll_2" d="M5.70738 29.6407C4.78671 29.6407 3.99849 29.3111 3.34271 28.652C2.68715 27.9927 2.35938 27.2062 2.35938 26.2927V7.00733C2.35938 6.08667 2.68715 5.29845 3.34271 4.64267C3.99849 3.98711 4.78671 3.65933 5.70738 3.65933H6.95238V2.326C6.95238 1.95778 7.08315 1.649 7.34471 1.39967C7.60649 1.15056 7.9216 1.026 8.29004 1.026H13.455C13.8288 1.026 14.142 1.15056 14.3947 1.39967C14.6476 1.649 14.774 1.95778 14.774 2.326V3.65933H16.0377C16.901 3.65933 17.634 3.95433 18.2367 4.54433C18.8394 5.13456 19.1407 5.855 19.1407 6.70567V6.839H26.274C27.2127 6.839 28.0085 7.16544 28.6614 7.81833C29.3143 8.47122 29.6407 9.26711 29.6407 10.206V23.0753C29.6407 24.014 29.3143 24.8098 28.6614 25.4627C28.0085 26.1156 27.2127 26.442 26.274 26.442H19.1407V26.5753C19.1407 27.4136 18.8394 28.134 18.2367 28.7367C17.634 29.3393 16.901 29.6407 16.0377 29.6407H5.70738ZM5.72604 26.274H16.0377V23.0753H26.274V10.198H16.0377V7.026H5.72604V26.274ZM13.1574 14.4073C13.5556 14.4073 13.8942 14.2679 14.173 13.989C14.4519 13.7101 14.5914 13.3716 14.5914 12.9733C14.5914 12.5751 14.4519 12.2366 14.173 11.9577C13.8942 11.6788 13.5556 11.5393 13.1574 11.5393C12.7592 11.5393 12.4206 11.6788 12.1417 11.9577C11.8628 12.2366 11.7234 12.5751 11.7234 12.9733C11.7234 13.3716 11.8628 13.7101 12.1417 13.989C12.4206 14.2679 12.7592 14.4073 13.1574 14.4073ZM18.3154 14.4073C18.7136 14.4073 19.0522 14.2679 19.331 13.989C19.6099 13.7101 19.7494 13.3716 19.7494 12.9733C19.7494 12.5751 19.6099 12.2366 19.331 11.9577C19.0522 11.6788 18.7136 11.5393 18.3154 11.5393C17.9169 11.5393 17.5783 11.6788 17.2994 11.9577C17.0205 12.2366 16.881 12.5751 16.881 12.9733C16.881 13.3716 17.0205 13.7101 17.2994 13.989C17.5783 14.2679 17.9169 14.4073 18.3154 14.4073ZM23.5067 14.4073C23.9049 14.4073 24.2435 14.2679 24.5224 13.989C24.8013 13.7101 24.9407 13.3716 24.9407 12.9733C24.9407 12.5751 24.8013 12.2366 24.5224 11.9577C24.2435 11.6788 23.9049 11.5393 23.5067 11.5393C23.1083 11.5393 22.7696 11.6788 22.4907 11.9577C22.2118 12.2366 22.0724 12.5751 22.0724 12.9733C22.0724 13.3716 22.2118 13.7101 22.4907 13.989C22.7696 14.2679 23.1083 14.4073 23.5067 14.4073ZM13.1574 21.742C13.5556 21.742 13.8942 21.6026 14.173 21.3237C14.4519 21.0448 14.5914 20.7062 14.5914 20.308C14.5914 19.9098 14.4519 19.5712 14.173 19.2923C13.8942 19.0134 13.5556 18.874 13.1574 18.874C12.7592 18.874 12.4206 19.0134 12.1417 19.2923C11.8628 19.5712 11.7234 19.9098 11.7234 20.308C11.7234 20.7062 11.8628 21.0448 12.1417 21.3237C12.4206 21.6026 12.7592 21.742 13.1574 21.742ZM18.3154 21.742C18.7136 21.742 19.0522 21.6026 19.331 21.3237C19.6099 21.0448 19.7494 20.7062 19.7494 20.308C19.7494 19.9098 19.6099 19.5712 19.331 19.2923C19.0522 19.0134 18.7136 18.874 18.3154 18.874C17.9169 18.874 17.5783 19.0134 17.2994 19.2923C17.0205 19.5712 16.881 19.9098 16.881 20.308C16.881 20.7062 17.0205 21.0448 17.2994 21.3237C17.5783 21.6026 17.9169 21.742 18.3154 21.742ZM23.5067 21.742C23.9049 21.742 24.2435 21.6026 24.5224 21.3237C24.8013 21.0448 24.9407 20.7062 24.9407 20.308C24.9407 19.9098 24.8013 19.5712 24.5224 19.2923C24.2435 19.0134 23.9049 18.874 23.5067 18.874C23.1083 18.874 22.7696 19.0134 22.4907 19.2923C22.2118 19.5712 22.0724 19.9098 22.0724 20.308C22.0724 20.7062 22.2118 21.0448 22.4907 21.3237C22.7696 21.6026 23.1083 21.742 23.5067 21.742Z" fill="#1A1A1A"/>
</g>
</g>
</svg>
