<svg width="24" height="24" viewBox="0 0 24 24" fill="none" xmlns="http://www.w3.org/2000/svg">
<g id="cottage">
<mask id="mask0_71_919" style="mask-type:alpha" maskUnits="userSpaceOnUse" x="0" y="0" width="24" height="24">
<rect id="Bounding box" width="24" height="24" fill="#D9D9D9"/>
</mask>
<g mask="url(#mask0_71_919)">
<path id="cottage_2" d="M3.931 18.6245V11.4745L2.95275 12.2107C2.70675 12.3986 2.4215 12.475 2.097 12.44C1.7725 12.4052 1.51209 12.2607 1.31575 12.0067C1.11942 11.7529 1.047 11.4683 1.0985 11.153C1.15017 10.8377 1.29959 10.5819 1.54675 10.3857L3.931 8.56073V6.47648C3.931 6.15815 4.04617 5.88699 4.2765 5.66299C4.507 5.43915 4.79384 5.32724 5.137 5.32724C5.44334 5.32724 5.70442 5.43515 5.92025 5.65098C6.13609 5.86682 6.244 6.1279 6.244 6.43423V6.80923L10.5543 3.57648C11.0106 3.23348 11.5173 3.06407 12.0745 3.06823C12.6317 3.0724 13.1377 3.24599 13.5925 3.58898L22.4375 10.2982C22.688 10.4947 22.8358 10.7506 22.881 11.0657C22.9263 11.3809 22.851 11.6632 22.655 11.9127C22.4607 12.1597 22.2078 12.3059 21.8963 12.3512C21.5846 12.3964 21.3053 12.321 21.0583 12.125L20.2158 11.4995V18.6245C20.2158 19.3285 19.9709 19.9253 19.4813 20.415C18.9916 20.9046 18.3948 21.1495 17.6908 21.1495H6.456C5.752 21.1495 5.15517 20.9046 4.6655 20.415C4.17584 19.9253 3.931 19.3285 3.931 18.6245ZM6.244 18.8505H10.8675V16C10.8675 15.6817 10.9827 15.4105 11.213 15.1865C11.4435 14.9625 11.7162 14.8505 12.031 14.8505C12.3458 14.8505 12.6161 14.9625 12.8418 15.1865C13.0676 15.4105 13.1805 15.6817 13.1805 16V18.8505H17.9168V9.74374L12.0733 5.34173L6.244 9.74374V18.8505ZM5.3695 4.32724C4.963 4.32724 4.64092 4.16848 4.40325 3.85098C4.16559 3.53365 4.13059 3.20557 4.29825 2.86673C4.62159 2.2244 5.076 1.70323 5.6615 1.30323C6.247 0.903235 6.90267 0.703235 7.6285 0.703235C7.85734 0.703235 8.07067 0.652402 8.2685 0.550735C8.46634 0.449069 8.62525 0.304401 8.74525 0.116734C8.88292 -0.0897657 9.05317 -0.264515 9.256 -0.407515C9.45884 -0.550348 9.68025 -0.621765 9.92025 -0.621765C10.3389 -0.621765 10.6575 -0.452682 10.876 -0.114516C11.0945 0.223651 11.1068 0.571068 10.913 0.927734C10.5827 1.54507 10.1273 2.04515 9.54675 2.42798C8.96642 2.81082 8.328 3.00224 7.6315 3.00224C7.40467 3.00224 7.19234 3.05565 6.9945 3.16248C6.79667 3.26932 6.63784 3.41607 6.518 3.60273C6.38034 3.80923 6.21534 3.98157 6.023 4.11973C5.83067 4.25807 5.61284 4.32724 5.3695 4.32724Z" fill="#1A1A1A"/>
</g>
</g>
</svg>
