<svg width="16" height="16" viewBox="0 0 16 16" fill="none" xmlns="http://www.w3.org/2000/svg">
<g id="delete">
<mask id="mask0_392_2206" style="mask-type:alpha" maskUnits="userSpaceOnUse" x="0" y="0" width="16" height="16">
<rect id="Bounding box" width="16" height="16" fill="#D9D9D9"/>
</mask>
<g mask="url(#mask0_392_2206)">
<path id="delete_2" d="M4.61348 14.1537C4.14348 14.1537 3.74542 13.9906 3.41931 13.6645C3.0932 13.3384 2.93014 12.9404 2.93014 12.4704V4.15369H2.90514C2.67637 4.15369 2.47892 4.07058 2.31281 3.90436C2.14659 3.73814 2.06348 3.54069 2.06348 3.31203C2.06348 3.08325 2.14659 2.88575 2.31281 2.71953C2.47892 2.55342 2.67637 2.47036 2.90514 2.47036H5.81714V2.46203C5.81714 2.23325 5.90025 2.03575 6.06648 1.86953C6.23259 1.70342 6.43003 1.62036 6.65881 1.62036H9.33998C9.56875 1.62036 9.7662 1.70342 9.93231 1.86953C10.0985 2.03575 10.1816 2.23325 10.1816 2.46203V2.47036H13.1125C13.3413 2.47036 13.5387 2.55342 13.7048 2.71953C13.871 2.88575 13.9541 3.08325 13.9541 3.31203C13.9541 3.54069 13.871 3.73814 13.7048 3.90436C13.5387 4.07058 13.3413 4.15369 13.1125 4.15369H13.0875V12.4704C13.0875 12.9404 12.9244 13.3384 12.5983 13.6645C12.2722 13.9906 11.8741 14.1537 11.4041 14.1537H4.61348ZM11.4041 4.15369H4.61348V12.4704H11.4041V4.15369ZM6.65231 11.2655C6.84964 11.2655 7.02042 11.1935 7.16464 11.0494C7.30887 10.9051 7.38098 10.7344 7.38098 10.537V6.07753C7.38098 5.8802 7.30887 5.70942 7.16464 5.56519C7.02042 5.42097 6.84964 5.34886 6.65231 5.34886C6.45498 5.34886 6.28264 5.42097 6.13531 5.56519C5.98798 5.70942 5.91431 5.8802 5.91431 6.07753V10.537C5.91431 10.7344 5.98798 10.9051 6.13531 11.0494C6.28264 11.1935 6.45498 11.2655 6.65231 11.2655ZM9.37481 11.2655C9.57214 11.2655 9.74292 11.1935 9.88714 11.0494C10.0313 10.9051 10.1033 10.7344 10.1033 10.537V6.07753C10.1033 5.8802 10.0313 5.70942 9.88714 5.56519C9.74292 5.42097 9.57214 5.34886 9.37481 5.34886C9.17748 5.34886 9.00509 5.42097 8.85764 5.56519C8.71031 5.70942 8.63664 5.8802 8.63664 6.07753V10.537C8.63664 10.7344 8.71031 10.9051 8.85764 11.0494C9.00509 11.1935 9.17748 11.2655 9.37481 11.2655Z" fill="#1A1A1A"/>
</g>
</g>
</svg>
