<svg width="32" height="32" viewBox="0 0 32 32" fill="none" xmlns="http://www.w3.org/2000/svg">
<g id="emoji_objects">
<mask id="mask0_236_231" style="mask-type:alpha" maskUnits="userSpaceOnUse" x="0" y="0" width="32" height="32">
<rect id="Bounding box" width="32" height="32" fill="#D9D9D9"/>
</mask>
<g mask="url(#mask0_236_231)">
<path id="emoji_objects_2" d="M16.001 29.474C15.4197 29.474 14.8664 29.3469 14.341 29.0927C13.8157 28.8387 13.4001 28.4532 13.0943 27.9363H13.0277C12.227 27.8483 11.5599 27.5093 11.0264 26.9193C10.4928 26.3291 10.226 25.6338 10.226 24.8333V20.5537C8.90246 19.6352 7.86046 18.4651 7.10002 17.0433C6.33957 15.6218 5.95935 14.0653 5.95935 12.374C5.95935 9.58354 6.93646 7.21132 8.89068 5.25732C10.8447 3.3031 13.2145 2.32599 16 2.32599C18.7856 2.32599 21.1553 3.3031 23.1094 5.25732C25.0636 7.21132 26.0407 9.5811 26.0407 12.3667C26.0407 14.0724 25.6605 15.6338 24.9 17.0507C24.1396 18.4675 23.0976 19.6352 21.774 20.5537V24.8333C21.774 25.6338 21.5072 26.3291 20.9737 26.9193C20.4401 27.5093 19.773 27.8483 18.9723 27.9363H18.9057C18.5999 28.4532 18.1816 28.8387 17.6507 29.0927C17.1198 29.3469 16.5699 29.474 16.001 29.474ZM13.5927 24.8333H18.4073V23.6333H13.5927V24.8333ZM13.5927 22.3333H18.4073V21.1H13.5927V22.3333ZM13.1 18.374H14.916V15.09L12.7203 12.8943C12.5064 12.6781 12.4025 12.4208 12.4087 12.1223C12.4149 11.8239 12.5259 11.5677 12.7417 11.3537C12.9572 11.1397 13.2139 11.0327 13.5117 11.0327C13.8097 11.0327 14.0657 11.1397 14.2797 11.3537L16 13.0927L17.739 11.3537C17.9552 11.1397 18.2126 11.0327 18.511 11.0327C18.8095 11.0327 19.0657 11.1404 19.2797 11.356C19.4937 11.5715 19.6007 11.8283 19.6007 12.1263C19.6007 12.4243 19.4937 12.6803 19.2797 12.8943L17.084 15.09V18.374H18.9C20.0511 17.7962 20.9679 16.9789 21.6504 15.922C22.3328 14.8653 22.674 13.6802 22.674 12.3667C22.674 10.5018 22.0279 8.92321 20.7357 7.63099C19.4435 6.33877 17.8649 5.69266 16 5.69266C14.1351 5.69266 12.5566 6.33877 11.2644 7.63099C9.97213 8.92321 9.32602 10.5018 9.32602 12.3667C9.32602 13.6802 9.66724 14.8653 10.3497 15.922C11.0321 16.9789 11.9489 17.7962 13.1 18.374Z" fill="#1C1B1F"/>
</g>
</g>
</svg>
