<svg width="32" height="32" viewBox="0 0 32 32" fill="none" xmlns="http://www.w3.org/2000/svg">
<g id="linked_camera">
<mask id="mask0_236_446" style="mask-type:alpha" maskUnits="userSpaceOnUse" x="0" y="0" width="32" height="32">
<rect id="Bounding box" width="32" height="32" fill="#D9D9D9"/>
</mask>
<g mask="url(#mask0_236_446)">
<path id="linked_camera_2" d="M27.4427 8.61665C27.4427 7.10888 26.9218 5.83032 25.88 4.78099C24.838 3.73187 23.5614 3.20732 22.05 3.20732C21.7732 3.20732 21.534 3.09854 21.3327 2.88099C21.1312 2.66343 21.0304 2.41387 21.0304 2.13232C21.0304 1.85076 21.1329 1.60787 21.338 1.40365C21.5432 1.19921 21.7868 1.09698 22.069 1.09698C24.167 1.09698 25.9416 1.82265 27.3927 3.27398C28.844 4.7251 29.5697 6.49965 29.5697 8.59765C29.5697 8.87987 29.4678 9.12354 29.264 9.32865C29.0605 9.53376 28.811 9.63632 28.5157 9.63632C28.2202 9.63632 27.9675 9.53554 27.7577 9.33399C27.5477 9.13265 27.4427 8.89354 27.4427 8.61665ZM23.553 8.63332C23.553 8.21821 23.4035 7.86399 23.1044 7.57065C22.8055 7.2771 22.4485 7.13032 22.0334 7.13032C21.7412 7.13032 21.5009 7.01821 21.3127 6.79399C21.1245 6.56954 21.0304 6.30499 21.0304 6.00032C21.0304 5.69565 21.1277 5.44121 21.3224 5.23699C21.517 5.03254 21.7618 4.93032 22.0567 4.93032C23.0767 4.93032 23.9423 5.28854 24.6534 6.00499C25.3643 6.72165 25.7197 7.59221 25.7197 8.61665C25.7197 8.89354 25.6166 9.13265 25.4104 9.33399C25.2044 9.53554 24.9555 9.63632 24.6637 9.63632C24.3719 9.63632 24.1138 9.53987 23.8894 9.34698C23.6652 9.1541 23.553 8.91621 23.553 8.63332ZM5.72604 28.3073C4.78738 28.3073 3.9916 27.9809 3.33871 27.328C2.68582 26.6751 2.35938 25.8793 2.35938 24.9407V9.70932C2.35938 8.77065 2.68582 7.97487 3.33871 7.32199C3.9916 6.6691 4.78738 6.34265 5.72604 6.34265H9.36104L11.0487 4.65799C11.356 4.35132 11.7172 4.11376 12.132 3.94532C12.5469 3.77687 12.9713 3.69265 13.405 3.69265H18.0137C18.4713 3.69265 18.8663 3.85887 19.1987 4.19132C19.5309 4.52376 19.697 4.91865 19.697 5.37599C19.697 5.83354 19.5309 6.22854 19.1987 6.56099C18.8663 6.89321 18.4713 7.05932 18.0137 7.05932H13.428L10.7204 9.70932H5.72604V24.9407H26.274V12.653C26.274 12.1954 26.4402 11.8004 26.7724 11.468C27.1048 11.1358 27.4998 10.9697 27.9574 10.9697C28.4147 10.9697 28.8096 11.1358 29.142 11.468C29.4745 11.8004 29.6407 12.1954 29.6407 12.653V24.9407C29.6407 25.8793 29.3143 26.6751 28.6614 27.328C28.0085 27.9809 27.2127 28.3073 26.274 28.3073H5.72604ZM15.9957 23.3173C17.6697 23.3173 19.089 22.7364 20.2537 21.5747C21.4184 20.4129 22.0007 18.995 22.0007 17.321C22.0007 15.647 21.4198 14.2277 20.258 13.063C19.0963 11.8983 17.6784 11.316 16.0044 11.316C14.3304 11.316 12.911 11.8969 11.7464 13.0587C10.5817 14.2204 9.99938 15.6383 9.99938 17.3123C9.99938 18.9863 10.5803 20.4057 11.742 21.5703C12.9038 22.735 14.3217 23.3173 15.9957 23.3173ZM15.9934 20.3277C15.1414 20.3277 14.4277 20.0399 13.8524 19.4643C13.2768 18.889 12.989 18.1753 12.989 17.3233C12.989 16.4715 13.2768 15.7557 13.8524 15.1757C14.4277 14.5957 15.1414 14.3057 15.9934 14.3057C16.8452 14.3057 17.561 14.5957 18.141 15.1757C18.721 15.7557 19.011 16.4715 19.011 17.3233C19.011 18.1753 18.721 18.889 18.141 19.4643C17.561 20.0399 16.8452 20.3277 15.9934 20.3277Z" fill="#1A1A1A"/>
</g>
</g>
</svg>
