<svg width="25" height="24" viewBox="0 0 25 24" fill="none" xmlns="http://www.w3.org/2000/svg">
<g id="local_library">
<mask id="mask0_71_898" style="mask-type:alpha" maskUnits="userSpaceOnUse" x="0" y="0" width="25" height="24">
<rect id="Bounding box" x="0.333328" width="24" height="24" fill="#D9D9D9"/>
</mask>
<g mask="url(#mask0_71_898)">
<path id="local_library_2" d="M3.10283 17.2885V10.32C3.10283 9.77049 3.305 9.3075 3.70933 8.931C4.11383 8.5545 4.58741 8.38708 5.13008 8.42875C6.46058 8.62658 7.73141 8.99391 8.94258 9.53075C10.1537 10.0674 11.284 10.755 12.3333 11.5935C13.3743 10.755 14.5004 10.0674 15.7116 9.53075C16.9227 8.99391 18.1936 8.62658 19.5241 8.42875C20.0667 8.38708 20.5424 8.55466 20.9511 8.9315C21.3596 9.30816 21.5638 9.77516 21.5638 10.3325V17.2885C21.5638 17.8423 21.383 18.314 21.0213 18.7035C20.6597 19.093 20.2048 19.3082 19.6568 19.349C18.5558 19.484 17.4937 19.759 16.4703 20.174C15.4472 20.5888 14.4831 21.1202 13.5781 21.768C13.3924 21.915 13.1927 22.0216 12.9791 22.0877C12.7652 22.1539 12.55 22.187 12.3333 22.187C12.1167 22.187 11.9014 22.1539 11.6876 22.0877C11.4739 22.0216 11.2742 21.915 11.0886 21.768C10.1836 21.1202 9.2195 20.5888 8.19633 20.174C7.173 19.759 6.11083 19.484 5.00983 19.349C4.46183 19.3082 4.007 19.093 3.64533 18.7035C3.28366 18.314 3.10283 17.8423 3.10283 17.2885ZM12.3333 19.6902C13.2923 18.9517 14.339 18.3487 15.4733 17.881C16.6075 17.4132 17.796 17.0865 19.0388 16.901V11.1152C17.8997 11.2801 16.7736 11.661 15.6606 12.258C14.5474 12.8548 13.4383 13.675 12.3333 14.7185C11.2503 13.7055 10.1516 12.9017 9.03708 12.307C7.92258 11.7125 6.78616 11.3152 5.62783 11.1152V16.901C6.833 17.0677 8.005 17.3872 9.14383 17.8597C10.2828 18.3322 11.346 18.9424 12.3333 19.6902ZM12.3353 9.24024C11.2025 9.24024 10.2377 8.84258 9.44108 8.04725C8.64458 7.25191 8.24633 6.28791 8.24633 5.15525C8.24633 4.02241 8.644 3.05533 9.43933 2.25399C10.2347 1.45283 11.1987 1.05225 12.3313 1.05225C13.4642 1.05225 14.4289 1.45283 15.2256 2.25399C16.0221 3.05533 16.4203 4.02241 16.4203 5.15525C16.4203 6.28791 16.0227 7.25191 15.2273 8.04725C14.432 8.84258 13.468 9.24024 12.3353 9.24024ZM12.3353 6.92725C12.8275 6.92725 13.2482 6.75491 13.5973 6.41024C13.9467 6.06574 14.1213 5.64741 14.1213 5.15525C14.1213 4.66291 13.9461 4.2415 13.5956 3.891C13.2451 3.5405 12.8237 3.36525 12.3313 3.36525C11.8392 3.36525 11.4185 3.5405 11.0693 3.891C10.72 4.2415 10.5453 4.66291 10.5453 5.15525C10.5453 5.64741 10.7206 6.06574 11.0711 6.41024C11.4216 6.75491 11.843 6.92725 12.3353 6.92725Z" fill="#1A1A1A"/>
</g>
</g>
</svg>
