<svg width="32" height="32" viewBox="0 0 32 32" fill="none" xmlns="http://www.w3.org/2000/svg">
<g id="photo_library">
<mask id="mask0_236_401" style="mask-type:alpha" maskUnits="userSpaceOnUse" x="0" y="0" width="32" height="32">
<rect id="Bounding box" width="32" height="32" fill="#D9D9D9"/>
</mask>
<g mask="url(#mask0_236_401)">
<path id="photo_library_2" d="M17.9167 16.5L16.553 14.726C16.377 14.5091 16.1529 14.4007 15.8807 14.4007C15.6085 14.4007 15.3861 14.5091 15.2137 14.726L13.497 16.942C13.2801 17.2174 13.2477 17.5126 13.3997 17.8277C13.5517 18.1426 13.8074 18.3 14.1667 18.3H23.7167C24.076 18.3 24.3317 18.1454 24.4837 17.836C24.6357 17.5265 24.6032 17.2285 24.3864 16.942L21.653 13.376C21.477 13.1591 21.2529 13.0507 20.9807 13.0507C20.7085 13.0507 20.4861 13.1591 20.3137 13.376L17.9167 16.5ZM11.1594 24.2074C10.2207 24.2074 9.42491 23.8809 8.77203 23.228C8.11914 22.5751 7.79269 21.7794 7.79269 20.8407V5.29269C7.79269 4.35403 8.11914 3.55825 8.77203 2.90536C9.42491 2.25247 10.2207 1.92603 11.1594 1.92603H26.7074C27.646 1.92603 28.4418 2.25247 29.0947 2.90536C29.7476 3.55825 30.074 4.35403 30.074 5.29269V20.8407C30.074 21.7794 29.7476 22.5751 29.0947 23.228C28.4418 23.8809 27.646 24.2074 26.7074 24.2074H11.1594ZM11.1594 20.8407H26.7074V5.29269H11.1594V20.8407ZM5.29269 30.074C4.35403 30.074 3.55825 29.7476 2.90536 29.0947C2.25247 28.4418 1.92603 27.646 1.92603 26.7074V9.47602C1.92603 9.01869 2.09225 8.6238 2.42469 8.29136C2.75691 7.95891 3.1518 7.79269 3.60936 7.79269C4.06691 7.79269 4.46191 7.95891 4.79436 8.29136C5.12658 8.6238 5.29269 9.01869 5.29269 9.47602V26.7074H22.524C22.9814 26.7074 23.3762 26.8735 23.7087 27.2057C24.0411 27.5381 24.2074 27.9331 24.2074 28.3907C24.2074 28.8482 24.0411 29.2431 23.7087 29.5754C23.3762 29.9078 22.9814 30.074 22.524 30.074H5.29269Z" fill="#1A1A1A"/>
</g>
</g>
</svg>
