<svg width="32" height="32" viewBox="0 0 32 32" fill="none" xmlns="http://www.w3.org/2000/svg">
<g id="science">
<mask id="mask0_236_303" style="mask-type:alpha" maskUnits="userSpaceOnUse" x="0" y="0" width="32" height="32">
<rect id="Bounding box" width="32" height="32" fill="#D9D9D9"/>
</mask>
<g mask="url(#mask0_236_303)">
<path id="science_2" d="M6.83339 28.3406C5.5025 28.3406 4.5525 27.746 3.98339 26.5566C3.41428 25.3671 3.54539 24.2608 4.37672 23.2376L11.5594 14.5073V7.2333H10.7767C10.3143 7.2333 9.92094 7.07053 9.59672 6.74497C9.27227 6.41942 9.11005 6.02453 9.11005 5.5603C9.11005 5.09586 9.27227 4.69753 9.59672 4.36531C9.92094 4.03286 10.3143 3.86664 10.7767 3.86664H21.2567C21.7192 3.86664 22.1125 4.03197 22.4367 4.36264C22.7612 4.69331 22.9234 5.09464 22.9234 5.56664C22.9234 6.02908 22.7612 6.42253 22.4367 6.74697C22.1125 7.07119 21.7192 7.2333 21.2567 7.2333H20.4741V14.5073L27.6234 23.2376C28.4547 24.2608 28.5884 25.3671 28.0244 26.5566C27.4602 27.746 26.5187 28.3406 25.2001 28.3406H6.83339ZM7.32339 24.974H24.7101L17.1074 15.7V7.2333H14.9261V15.6943L7.32339 24.974Z" fill="#1A1A1A"/>
</g>
</g>
</svg>
