<svg width="25" height="24" viewBox="0 0 25 24" fill="none" xmlns="http://www.w3.org/2000/svg">
<g id="settings">
<mask id="mask0_71_915" style="mask-type:alpha" maskUnits="userSpaceOnUse" x="0" y="0" width="25" height="24">
<rect id="Bounding box" x="0.666664" width="24" height="24" fill="#D9D9D9"/>
</mask>
<g mask="url(#mask0_71_915)">
<path id="settings_2" d="M11.0732 22.2305C10.6593 22.2305 10.3006 22.0958 9.99691 21.8265C9.69308 21.557 9.51616 21.2196 9.46616 20.8143L9.21616 18.9625C9.07483 18.8992 8.92433 18.8259 8.76466 18.7428C8.60516 18.6596 8.462 18.5748 8.33516 18.4885L6.63666 19.1885C6.25733 19.348 5.87325 19.3641 5.48441 19.2368C5.09558 19.1096 4.796 18.8658 4.58566 18.5055L2.97966 15.6983C2.76916 15.3439 2.70583 14.9664 2.78966 14.5658C2.87366 14.1651 3.08033 13.8387 3.40966 13.5865L4.89541 12.449C4.88825 12.3787 4.88466 12.3123 4.88466 12.2498V12C4.88466 11.9377 4.88675 11.867 4.89091 11.788C4.89508 11.709 4.90075 11.6133 4.90791 11.501L3.43466 10.4153C3.09583 10.1644 2.88475 9.84034 2.80141 9.44301C2.71808 9.04584 2.78166 8.66126 2.99216 8.28926L4.58566 5.50876C4.79766 5.15776 5.09741 4.91626 5.48491 4.78426C5.87241 4.65242 6.25583 4.66617 6.63516 4.82551L8.40091 5.55051C8.51108 5.46434 8.63058 5.38409 8.75941 5.30976C8.88808 5.23542 9.04033 5.16242 9.21616 5.09076L9.46616 3.17501C9.51616 2.76017 9.69516 2.41801 10.0032 2.14851C10.311 1.87917 10.6718 1.74451 11.0857 1.74451H14.2602C14.674 1.74451 15.0327 1.87917 15.3364 2.14851C15.6402 2.41801 15.8172 2.76017 15.8672 3.17501L16.1127 5.05076C16.2737 5.11576 16.4215 5.18751 16.5562 5.26601C16.6907 5.34451 16.8213 5.43934 16.9482 5.55051L18.6967 4.82551C19.076 4.66617 19.4601 4.65242 19.8489 4.78426C20.2377 4.91626 20.5373 5.15776 20.7477 5.50876L22.3412 8.28926C22.5517 8.65292 22.6152 9.03492 22.5319 9.43526C22.4486 9.83576 22.2375 10.1624 21.8987 10.4153L20.3487 11.551C20.356 11.63 20.3597 11.6986 20.3597 11.7568V12C20.3597 12.104 20.3573 12.1886 20.3527 12.2538C20.3478 12.3191 20.3423 12.3883 20.3362 12.4615L21.8612 13.5723C22.2 13.8251 22.4111 14.1518 22.4944 14.5523C22.5777 14.9526 22.5142 15.3346 22.3037 15.6983L20.6977 18.5055C20.4857 18.8563 20.1859 19.0978 19.7984 19.2298C19.4109 19.3618 19.0275 19.348 18.6482 19.1885L16.9199 18.4635C16.8181 18.5415 16.7111 18.6158 16.5989 18.6865C16.4869 18.7572 16.3263 18.845 16.1172 18.95L15.8672 20.8143C15.8172 21.2196 15.6402 21.557 15.3364 21.8265C15.0327 22.0958 14.674 22.2305 14.2602 22.2305H11.0732ZM11.8294 19.7055H13.4472L13.8237 17.0713C14.3332 16.9379 14.808 16.7459 15.2482 16.4953C15.6883 16.2448 16.0876 15.9173 16.4459 15.513L18.9194 16.563L19.7124 15.1425L17.5797 13.5458C17.6547 13.2936 17.7136 13.0391 17.7564 12.7823C17.7991 12.5254 17.8204 12.2647 17.8204 12C17.8204 11.7322 17.8012 11.4748 17.7627 11.228C17.724 10.981 17.663 10.7231 17.5797 10.4543L19.7407 8.83251L18.9444 7.41201L16.4477 8.48701C16.1227 8.10867 15.7276 7.78334 15.2624 7.51101C14.7971 7.23851 14.3175 7.04442 13.8237 6.92876L13.5004 4.26951H11.8329L11.5237 6.90226C10.9622 7.03442 10.4672 7.22217 10.0389 7.46551C9.61075 7.70884 9.19608 8.04101 8.79491 8.46201L6.37491 7.41201L5.56766 8.83251L7.64866 10.3778C7.56533 10.6633 7.50233 10.9339 7.45966 11.1898C7.41683 11.4454 7.39541 11.7111 7.39541 11.9868C7.39541 12.2468 7.41475 12.507 7.45341 12.7675C7.49191 13.028 7.55283 13.3052 7.63616 13.599L5.56766 15.1425L6.37666 16.563L8.78241 15.5273C9.18358 15.9378 9.611 16.2708 10.0647 16.5265C10.5185 16.7823 11.0048 16.9728 11.5237 17.0978L11.8294 19.7055ZM12.6177 15.375C13.547 15.375 14.3408 15.0454 14.9992 14.3863C15.6575 13.7271 15.9867 12.9313 15.9867 11.9988C15.9867 11.0663 15.6572 10.2708 14.9984 9.61251C14.3394 8.95417 13.5438 8.62501 12.6117 8.62501C11.6795 8.62501 10.884 8.95459 10.2252 9.61376C9.56616 10.2729 9.23666 11.0688 9.23666 12.0013C9.23666 12.9338 9.56616 13.7292 10.2252 14.3875C10.884 15.0458 11.6815 15.375 12.6177 15.375Z" fill="#1A1A1A"/>
</g>
</g>
</svg>
