<svg width="79" height="34" viewBox="0 0 79 34" fill="none" xmlns="http://www.w3.org/2000/svg">
<g id="Filme">
<g id="Union">
<path d="M65.8585 33.3277H0.596166C0.523447 33.3288 0.451225 33.3154 0.383717 33.2883C0.351641 33.2755 0.320937 33.2596 0.291979 33.2411C0.259994 33.2206 0.230147 33.1968 0.202951 33.17C0.151134 33.1189 0.109993 33.0581 0.0819085 32.991C0.0538088 32.9239 0.0393524 32.8519 0.0393524 32.7792C0.0393524 32.7065 0.0538088 32.6344 0.0819085 32.5673C0.109993 32.5002 0.151134 32.4394 0.202951 32.3884C0.254768 32.3373 0.316208 32.2971 0.383717 32.27C0.412434 32.2585 0.442009 32.2495 0.472112 32.243C0.51277 32.2342 0.554393 32.23 0.596166 32.2307H65.8585C66.1971 32.2302 66.5217 32.0955 66.7611 31.8561C67.0005 31.6167 67.1351 31.2921 67.1355 30.9535V22.6684C67.1362 22.0401 67.386 21.4378 67.8303 20.9935C68.2745 20.5492 68.8768 20.2993 69.5051 20.2985H76.5045C76.8431 20.2981 77.1677 20.1634 77.4071 19.924C77.6465 19.6846 77.7812 19.3599 77.7816 19.0213V2.61353C77.7813 2.27489 77.6466 1.95022 77.4072 1.71074C77.1678 1.47126 76.8431 1.33654 76.5045 1.33612H0.596166C0.523447 1.33721 0.451225 1.32382 0.383717 1.29674C0.316208 1.26967 0.254768 1.22945 0.202951 1.1784C0.151134 1.12735 0.109993 1.06651 0.0819085 0.999422C0.0538088 0.932336 0.0393524 0.860325 0.0393524 0.787591C0.0393524 0.714857 0.0538088 0.642846 0.0819085 0.575759C0.109993 0.508657 0.151134 0.447819 0.202951 0.396785C0.254768 0.345736 0.316208 0.305499 0.383717 0.278423C0.451225 0.251347 0.523447 0.237975 0.596166 0.239059H76.5045C77.134 0.239752 77.7375 0.490134 78.1826 0.935302C78.6277 1.38045 78.8781 1.98401 78.8787 2.61353V19.0213C78.878 19.6508 78.6276 20.2543 78.1825 20.6994C77.7374 21.1445 77.1339 21.3949 76.5045 21.3956H69.5051C69.1677 21.396 68.8442 21.5302 68.6056 21.7689C68.3671 22.0075 68.2329 22.331 68.2326 22.6684V30.9535C68.2319 31.5829 67.9816 32.1864 67.5365 32.6315C67.0914 33.0767 66.4879 33.327 65.8585 33.3277Z" fill="#1A1A1A"/>
<path fill-rule="evenodd" clip-rule="evenodd" d="M57.2927 29.7463H55.4052C55.3332 29.7463 55.2618 29.7321 55.1953 29.7045C55.1287 29.677 55.0682 29.6366 55.0173 29.5856C54.9663 29.5347 54.9259 29.4742 54.8984 29.4076C54.8708 29.3411 54.8566 29.2697 54.8566 29.1977V25.9112C54.8566 25.8392 54.8708 25.7678 54.8984 25.7013C54.9259 25.6347 54.9663 25.5742 55.0173 25.5233C55.0682 25.4723 55.1287 25.4319 55.1953 25.4044C55.2618 25.3768 55.3332 25.3626 55.4052 25.3626H57.2927C57.3647 25.3626 57.436 25.3768 57.5026 25.4044C57.5691 25.4319 57.6296 25.4724 57.6805 25.5233C57.6947 25.5375 57.7081 25.5525 57.7207 25.5681C57.7361 25.5874 57.7503 25.6078 57.763 25.629C57.7769 25.6521 57.7891 25.6763 57.7994 25.7013C57.827 25.7678 57.8411 25.8392 57.8411 25.9112V29.1982C57.841 29.3436 57.7832 29.483 57.6803 29.5858C57.5775 29.6885 57.438 29.7463 57.2927 29.7463ZM55.9538 28.6491H56.7441V26.4598H55.9538V28.6491Z" fill="#1A1A1A"/>
<path fill-rule="evenodd" clip-rule="evenodd" d="M55.4052 6.7734H57.2927C57.3647 6.77341 57.436 6.75923 57.5026 6.73167C57.5691 6.70411 57.6296 6.66372 57.6805 6.61278C57.6985 6.59483 57.7151 6.57569 57.7303 6.55553L57.7358 6.54812C57.7377 6.54554 57.7396 6.54294 57.7414 6.54032C57.7459 6.53396 57.7502 6.5275 57.7544 6.52097C57.7719 6.49371 57.787 6.46489 57.7994 6.43483C57.827 6.36828 57.8411 6.29695 57.8411 6.22493V2.93833C57.8411 2.86629 57.827 2.79496 57.7994 2.7284C57.7719 2.66184 57.7314 2.60136 57.6805 2.55043C57.6296 2.49949 57.5691 2.45907 57.5026 2.4315C57.436 2.40392 57.3647 2.38974 57.2927 2.38974H55.4052C55.362 2.38972 55.3191 2.39481 55.2773 2.40484C55.2627 2.40832 55.2484 2.4124 55.2342 2.41706C55.2305 2.41828 55.2267 2.41953 55.2231 2.42082C55.2183 2.42249 55.2137 2.42421 55.209 2.426C55.2044 2.42776 55.1998 2.42958 55.1953 2.43147C55.1287 2.45902 55.0682 2.49944 55.0173 2.55039C54.9663 2.60133 54.9259 2.66181 54.8984 2.72837C54.8708 2.79494 54.8566 2.86627 54.8566 2.93833V6.22493C54.8566 6.29697 54.8708 6.36828 54.8984 6.43484C54.926 6.50139 54.9664 6.56187 55.0173 6.61279C55.0683 6.66372 55.1287 6.70413 55.1953 6.73168C55.2619 6.75924 55.3332 6.77341 55.4052 6.7734ZM56.7441 5.67633H55.9538V3.48692H56.7441V5.67633Z" fill="#1A1A1A"/>
<path fill-rule="evenodd" clip-rule="evenodd" d="M61.4658 29.7463H59.5784C59.4329 29.7463 59.2934 29.6885 59.1905 29.5856C59.0876 29.4827 59.0298 29.3432 59.0298 29.1977V25.9112C59.0298 25.7657 59.0876 25.6262 59.1905 25.5233C59.2934 25.4204 59.4329 25.3626 59.5784 25.3626H61.4658C61.6113 25.3626 61.7509 25.4204 61.8538 25.5233C61.9566 25.6262 62.0144 25.7657 62.0144 25.9112V29.1982C62.0143 29.3436 61.9564 29.483 61.8536 29.5858C61.7507 29.6886 61.6113 29.7463 61.4658 29.7463ZM60.127 28.6491H60.9173V26.4598H60.127V28.6491Z" fill="#1A1A1A"/>
<path fill-rule="evenodd" clip-rule="evenodd" d="M59.5784 6.7734H61.4658C61.5379 6.77341 61.6092 6.75924 61.6758 6.73168C61.7423 6.70413 61.8028 6.66372 61.8537 6.61279C61.9047 6.56187 61.9451 6.50139 61.9727 6.43484C62.0002 6.36828 62.0144 6.29697 62.0144 6.22493V2.93833C62.0144 2.79283 61.9566 2.6533 61.8538 2.55042C61.7509 2.44754 61.6113 2.38974 61.4658 2.38974H59.5784C59.4329 2.38974 59.2934 2.44754 59.1905 2.55042C59.0876 2.6533 59.0298 2.79283 59.0298 2.93833V6.22493C59.0298 6.29697 59.044 6.36828 59.0716 6.43484C59.0991 6.50139 59.1396 6.56187 59.1905 6.61279C59.2415 6.66372 59.3019 6.70413 59.3685 6.73168C59.435 6.75924 59.5064 6.77341 59.5784 6.7734ZM60.9173 5.67633H60.127V3.48692H60.9173V5.67633Z" fill="#1A1A1A"/>
<path fill-rule="evenodd" clip-rule="evenodd" d="M65.639 29.7463H63.7564C63.6844 29.7463 63.613 29.7321 63.5465 29.7045C63.4799 29.6769 63.4195 29.6365 63.3685 29.5856C63.3176 29.5347 63.2772 29.4742 63.2496 29.4076C63.2221 29.3411 63.2079 29.2697 63.2079 29.1977V25.9112C63.2079 25.8392 63.2221 25.7678 63.2496 25.7013C63.2772 25.6347 63.3176 25.5743 63.3685 25.5233C63.4089 25.4829 63.4554 25.4491 63.506 25.4231C63.5192 25.4163 63.5327 25.4101 63.5465 25.4044C63.613 25.3768 63.6844 25.3626 63.7564 25.3626H65.639C65.7845 25.3626 65.9241 25.4204 66.0269 25.5233C66.1298 25.6262 66.1876 25.7657 66.1876 25.9112V29.1982C66.1875 29.3436 66.1296 29.483 66.0268 29.5858C65.9239 29.6886 65.7844 29.7463 65.639 29.7463ZM64.305 28.6491H65.0906V26.4598H64.305V28.6491Z" fill="#1A1A1A"/>
<path fill-rule="evenodd" clip-rule="evenodd" d="M63.7564 6.7734H65.639C65.7111 6.77341 65.7824 6.75924 65.8489 6.73168C65.9155 6.70413 65.976 6.66372 66.0269 6.61279C66.0779 6.56187 66.1183 6.50139 66.1458 6.43484C66.1734 6.36828 66.1876 6.29697 66.1876 6.22493V2.93833C66.1876 2.79283 66.1298 2.6533 66.0269 2.55042C65.9241 2.44754 65.7845 2.38974 65.639 2.38974H63.7564C63.6844 2.38974 63.613 2.40392 63.5465 2.4315C63.4799 2.45907 63.4195 2.49949 63.3685 2.55043C63.3176 2.60136 63.2772 2.66184 63.2496 2.7284C63.2221 2.79496 63.2079 2.86629 63.2079 2.93833V6.22493C63.2079 6.29695 63.2221 6.36828 63.2496 6.43483C63.2772 6.50139 63.3176 6.56185 63.3686 6.61278C63.4195 6.66372 63.48 6.70411 63.5465 6.73167C63.613 6.75923 63.6844 6.77341 63.7564 6.7734ZM65.0906 5.67633H64.305V3.48692H65.0906V5.67633Z" fill="#1A1A1A"/>
<path fill-rule="evenodd" clip-rule="evenodd" d="M40.5519 29.6927H38.6693C38.5972 29.6927 38.5259 29.6785 38.4594 29.6509C38.3928 29.6233 38.3323 29.583 38.2814 29.532C38.2619 29.5125 38.244 29.4916 38.2277 29.4696C38.2015 29.4339 38.1795 29.3951 38.1625 29.354C38.1493 29.3222 38.1392 29.2892 38.1322 29.2556C38.1246 29.219 38.1208 29.1816 38.1208 29.1441V25.8576C38.1208 25.8431 38.1214 25.8285 38.1225 25.814C38.1237 25.7991 38.1255 25.7844 38.1279 25.7697C38.1347 25.7279 38.1463 25.687 38.1625 25.6477C38.1901 25.5812 38.2305 25.5207 38.2814 25.4697C38.3323 25.4188 38.3928 25.3784 38.4594 25.3508C38.5259 25.3232 38.5972 25.309 38.6693 25.309H40.5519C40.6974 25.309 40.8369 25.3668 40.9398 25.4697C41.0427 25.5726 41.1005 25.7121 41.1005 25.8576V29.1446C41.1003 29.29 41.0425 29.4294 40.9396 29.5322C40.8368 29.635 40.6973 29.6927 40.5519 29.6927ZM39.2179 28.5955H40.0034V26.4062H39.2179V28.5955Z" fill="#1A1A1A"/>
<path fill-rule="evenodd" clip-rule="evenodd" d="M38.6693 6.7198H40.5519C40.5891 6.71982 40.6261 6.71604 40.6623 6.70858C40.6779 6.70539 40.6934 6.70152 40.7086 6.69697C40.7197 6.69369 40.7306 6.69005 40.7415 6.68604C40.7483 6.68353 40.7551 6.68087 40.7618 6.67809C40.8284 6.65053 40.8889 6.61013 40.9398 6.5592C40.9907 6.50827 41.0312 6.44779 41.0587 6.38125C41.0863 6.31469 41.1005 6.24337 41.1005 6.17133V2.88474C41.1005 2.73924 41.0427 2.5997 40.9398 2.49682C40.8369 2.39394 40.6974 2.33615 40.5519 2.33615H38.6693C38.662 2.33615 38.6548 2.3363 38.6475 2.33658C38.6421 2.33679 38.6366 2.33709 38.6312 2.33747C38.602 2.3395 38.573 2.34386 38.5446 2.3505C38.5156 2.35727 38.487 2.36643 38.4594 2.3779C38.3928 2.40548 38.3323 2.44589 38.2814 2.49682C38.2305 2.54777 38.1901 2.60824 38.1625 2.6748C38.1518 2.70064 38.1432 2.72721 38.1365 2.75425L38.1338 2.76579C38.1321 2.77339 38.1306 2.78103 38.1293 2.78869C38.1278 2.79672 38.1266 2.80477 38.1255 2.81286C38.1224 2.83664 38.1208 2.86064 38.1208 2.88474V6.17133C38.1208 6.24336 38.135 6.31469 38.1625 6.38124C38.1766 6.41513 38.1939 6.44745 38.2143 6.47773C38.234 6.50692 38.2564 6.5342 38.2814 6.55919C38.3324 6.61013 38.3928 6.65052 38.4594 6.67807C38.5259 6.70563 38.5972 6.71982 38.6693 6.7198ZM40.0034 5.62274H39.2179V3.43333H40.0034V5.62274Z" fill="#1A1A1A"/>
<path fill-rule="evenodd" clip-rule="evenodd" d="M44.7884 29.6927H42.901C42.8665 29.6927 42.8322 29.6895 42.7985 29.6831C42.7618 29.6761 42.7257 29.6653 42.691 29.651C42.6244 29.6234 42.5639 29.583 42.513 29.5321C42.4621 29.4811 42.4217 29.4206 42.3941 29.3541C42.3665 29.2875 42.3523 29.2162 42.3524 29.1441V25.8576C42.3523 25.7856 42.3665 25.7142 42.3941 25.6477C42.4217 25.5811 42.4621 25.5206 42.513 25.4697C42.5639 25.4187 42.6244 25.3783 42.691 25.3508C42.7576 25.3232 42.8289 25.309 42.901 25.309H44.7884C44.8604 25.309 44.9318 25.3232 44.9983 25.3508C45.0648 25.3784 45.1253 25.4188 45.1762 25.4697C45.2032 25.4967 45.2272 25.5263 45.2479 25.5581C45.2593 25.5756 45.2698 25.5938 45.2792 25.6126C45.2849 25.6241 45.2902 25.6358 45.2952 25.6477C45.3227 25.7143 45.3369 25.7856 45.3368 25.8576V29.1446C45.3367 29.29 45.2789 29.4294 45.1761 29.5322C45.0732 29.6349 44.9338 29.6927 44.7884 29.6927ZM43.4495 28.5955H44.2398V26.4062H43.4495V28.5955Z" fill="#1A1A1A"/>
<path fill-rule="evenodd" clip-rule="evenodd" d="M42.901 6.7198H44.7884C44.796 6.7198 44.8036 6.71965 44.8111 6.71934L44.8185 6.71897L44.8284 6.71834C44.8364 6.71775 44.8444 6.71699 44.8525 6.71605C44.8631 6.71479 44.8738 6.71322 44.8844 6.71134C44.9234 6.70443 44.9615 6.69328 44.9983 6.67807C45.0648 6.65052 45.1253 6.61013 45.1762 6.55919C45.2272 6.50826 45.2676 6.44779 45.2951 6.38124C45.3227 6.31469 45.3369 6.24336 45.3368 6.17133V2.88474C45.3369 2.8127 45.3227 2.74136 45.2952 2.6748C45.2676 2.60824 45.2272 2.54777 45.1762 2.49684C45.1253 2.44589 45.0648 2.40548 44.9983 2.3779C44.9318 2.35033 44.8604 2.33615 44.7884 2.33615H42.901C42.8289 2.33613 42.7576 2.3503 42.691 2.37787C42.6244 2.40543 42.5639 2.44585 42.513 2.49679C42.4621 2.54774 42.4217 2.60821 42.3941 2.67477C42.3665 2.74135 42.3523 2.81268 42.3524 2.88474V6.17133C42.3524 6.24337 42.3666 6.31469 42.3941 6.38125C42.4217 6.44779 42.4621 6.50827 42.513 6.5592C42.564 6.61013 42.6245 6.65053 42.691 6.67809C42.7576 6.70565 42.8289 6.71982 42.901 6.7198ZM44.2398 5.62274H43.4495V3.43333H44.2398V5.62274Z" fill="#1A1A1A"/>
<path fill-rule="evenodd" clip-rule="evenodd" d="M48.9616 29.6927H47.0742C46.9287 29.6927 46.7891 29.6349 46.6863 29.532C46.5834 29.4291 46.5256 29.2896 46.5256 29.1441V25.8576C46.5256 25.7121 46.5834 25.5726 46.6863 25.4697C46.7891 25.3668 46.9287 25.309 47.0742 25.309H48.9616C49.1071 25.309 49.2466 25.3668 49.3495 25.4697C49.4524 25.5726 49.5102 25.7121 49.5102 25.8576V29.1446C49.51 29.29 49.4522 29.4294 49.3493 29.5322C49.2465 29.635 49.107 29.6927 48.9616 29.6927ZM47.6228 28.5955H48.413V26.4062H47.6228V28.5955Z" fill="#1A1A1A"/>
<path fill-rule="evenodd" clip-rule="evenodd" d="M47.0742 6.7198H48.9616C49.0336 6.71982 49.105 6.70565 49.1715 6.67809C49.2381 6.65053 49.2986 6.61013 49.3495 6.5592C49.4004 6.50827 49.4409 6.44779 49.4684 6.38125C49.496 6.31469 49.5102 6.24337 49.5102 6.17133V2.88474C49.5102 2.73924 49.4524 2.5997 49.3495 2.49682C49.2466 2.39394 49.1071 2.33615 48.9616 2.33615H47.0742C46.9287 2.33615 46.7891 2.39394 46.6863 2.49682C46.5834 2.5997 46.5256 2.73924 46.5256 2.88474V6.17133C46.5256 6.24337 46.5398 6.31469 46.5673 6.38125C46.5949 6.44779 46.6353 6.50827 46.6863 6.5592C46.7372 6.61013 46.7977 6.65053 46.8642 6.67809C46.9308 6.70565 47.0021 6.71982 47.0742 6.7198ZM48.413 5.62274H47.6228V3.43333H48.413V5.62274Z" fill="#1A1A1A"/>
<path fill-rule="evenodd" clip-rule="evenodd" d="M53.1348 29.6927H51.2522C51.2394 29.6927 51.2266 29.6922 51.2138 29.6913C51.1935 29.6899 51.1733 29.6874 51.1533 29.6837C51.1153 29.6767 51.0781 29.6658 51.0422 29.6509C51.0247 29.6437 51.0076 29.6355 50.991 29.6265C50.9775 29.6192 50.9643 29.6114 50.9515 29.603C50.934 29.5915 50.9172 29.579 50.9011 29.5656C50.8883 29.555 50.876 29.5438 50.8643 29.532C50.8134 29.4811 50.773 29.4206 50.7454 29.354C50.7178 29.2875 50.7037 29.2161 50.7037 29.1441V25.8576C50.7037 25.7856 50.7178 25.7143 50.7454 25.6477C50.7516 25.6327 50.7585 25.6179 50.7661 25.6035C50.7709 25.5942 50.7761 25.585 50.7815 25.5759C50.7854 25.5695 50.7893 25.5631 50.7934 25.5569C50.814 25.5256 50.8377 25.4963 50.8643 25.4697C50.9152 25.4188 50.9757 25.3784 51.0422 25.3508C51.1088 25.3232 51.1801 25.309 51.2522 25.309H53.1348C53.2803 25.309 53.4198 25.3668 53.5227 25.4697C53.6256 25.5726 53.6834 25.7121 53.6834 25.8576V29.1446C53.6832 29.29 53.6254 29.4294 53.5225 29.5322C53.4197 29.635 53.2802 29.6927 53.1348 29.6927ZM51.8008 28.5955H52.5863V26.4062H51.8008V28.5955Z" fill="#1A1A1A"/>
<path fill-rule="evenodd" clip-rule="evenodd" d="M51.2522 6.7198H53.1348C53.1469 6.7198 53.1589 6.71941 53.1709 6.71863L53.1782 6.71809L53.1814 6.71783L53.1927 6.71674L53.2031 6.71554C53.2084 6.71488 53.2138 6.71412 53.2191 6.7133C53.2402 6.71003 53.261 6.70553 53.2816 6.69982C53.303 6.69389 53.3241 6.68663 53.3447 6.67809C53.3818 6.66271 53.4171 6.64333 53.4498 6.62037C53.4758 6.60216 53.5001 6.58171 53.5227 6.5592C53.5736 6.50827 53.614 6.44779 53.6416 6.38125C53.6692 6.31469 53.6834 6.24337 53.6834 6.17133V2.88474C53.6834 2.73924 53.6256 2.5997 53.5227 2.49682C53.4198 2.39394 53.2803 2.33615 53.1348 2.33615H51.2522C51.1801 2.33615 51.1088 2.35033 51.0422 2.3779C50.9757 2.40548 50.9152 2.44589 50.8643 2.49682C50.8134 2.54777 50.773 2.60824 50.7454 2.6748C50.7397 2.68846 50.7347 2.70233 50.7301 2.71636C50.7269 2.72642 50.7239 2.73657 50.7213 2.7468C50.7096 2.79175 50.7037 2.8381 50.7037 2.88474V6.17133C50.7037 6.24336 50.7178 6.31469 50.7454 6.38124C50.773 6.44779 50.8134 6.50826 50.8643 6.55919C50.9152 6.61013 50.9757 6.65052 51.0422 6.67807C51.1088 6.70563 51.1801 6.71982 51.2522 6.7198ZM52.5863 5.62274H51.8008V3.43333H52.5863V5.62274Z" fill="#1A1A1A"/>
<path fill-rule="evenodd" clip-rule="evenodd" d="M23.812 29.6927H21.9294C21.8573 29.6927 21.786 29.6785 21.7195 29.6509C21.6529 29.6233 21.5924 29.583 21.5415 29.532C21.4906 29.4811 21.4502 29.4206 21.4226 29.354C21.3951 29.2875 21.3809 29.2161 21.3809 29.1441V25.8576C21.3809 25.7856 21.3951 25.7143 21.4226 25.6477C21.4502 25.5812 21.4906 25.5207 21.5415 25.4697C21.5924 25.4188 21.6529 25.3784 21.7195 25.3508C21.786 25.3232 21.8573 25.309 21.9294 25.309H23.812C23.9575 25.309 24.097 25.3668 24.1999 25.4697C24.3028 25.5726 24.3606 25.7121 24.3606 25.8576V29.1446C24.3604 29.29 24.3026 29.4294 24.1997 29.5322C24.0969 29.635 23.9574 29.6927 23.812 29.6927ZM22.478 28.5955H23.2635V26.4062H22.478V28.5955Z" fill="#1A1A1A"/>
<path fill-rule="evenodd" clip-rule="evenodd" d="M21.9294 6.7198H23.812C23.8224 6.7198 23.8327 6.71952 23.843 6.71894C23.855 6.71827 23.867 6.7172 23.8789 6.71574C23.8858 6.71489 23.8927 6.71391 23.8995 6.7128C23.9154 6.71024 23.9311 6.70699 23.9466 6.70306C23.9722 6.69658 23.9974 6.68824 24.0219 6.67809C24.0885 6.65053 24.1489 6.61013 24.1999 6.5592C24.2508 6.50827 24.2913 6.44779 24.3188 6.38125C24.3464 6.31469 24.3606 6.24337 24.3606 6.17133V2.88474C24.3606 2.73924 24.3028 2.5997 24.1999 2.49682C24.097 2.39394 23.9575 2.33615 23.812 2.33615H21.9294C21.8573 2.33615 21.786 2.35033 21.7195 2.3779C21.6529 2.40548 21.5924 2.44589 21.5415 2.49682C21.4906 2.54777 21.4502 2.60824 21.4226 2.6748C21.3951 2.74136 21.3809 2.8127 21.3809 2.88474V6.17133C21.3809 6.24336 21.3951 6.31469 21.4226 6.38124C21.4502 6.44779 21.4906 6.50826 21.5415 6.55919C21.5924 6.61013 21.6529 6.65052 21.7195 6.67807C21.786 6.70563 21.8573 6.71982 21.9294 6.7198ZM23.2635 5.62274H22.478V3.43333H23.2635V5.62274Z" fill="#1A1A1A"/>
<path fill-rule="evenodd" clip-rule="evenodd" d="M19.6177 29.6927H17.7351C17.701 29.6927 17.667 29.6895 17.6336 29.6832C17.6033 29.6775 17.5736 29.6693 17.5446 29.6586C17.5381 29.6561 17.5316 29.6536 17.5252 29.6509C17.4586 29.6233 17.3981 29.583 17.3472 29.532C17.2963 29.4811 17.2559 29.4206 17.2283 29.354C17.2008 29.2875 17.1866 29.2161 17.1866 29.1441V25.8576C17.1866 25.7856 17.2008 25.7143 17.2283 25.6477C17.2559 25.5812 17.2963 25.5207 17.3472 25.4697C17.3981 25.4188 17.4586 25.3784 17.5252 25.3508C17.5917 25.3232 17.663 25.309 17.7351 25.309H19.6177C19.7632 25.309 19.9027 25.3668 20.0056 25.4697C20.1085 25.5726 20.1663 25.7121 20.1663 25.8576V29.1446C20.1661 29.29 20.1083 29.4294 20.0054 29.5322C19.9026 29.635 19.7631 29.6927 19.6177 29.6927ZM18.2837 28.5955H19.0692V26.4062H18.2837V28.5955Z" fill="#1A1A1A"/>
<path fill-rule="evenodd" clip-rule="evenodd" d="M17.7351 6.7198H19.6177C19.6897 6.71982 19.7611 6.70565 19.8276 6.67809C19.8942 6.65053 19.9547 6.61013 20.0056 6.5592C20.0565 6.50827 20.097 6.44779 20.1245 6.38125C20.1521 6.31469 20.1663 6.24337 20.1663 6.17133V2.88474C20.1663 2.73924 20.1085 2.5997 20.0056 2.49682C19.9027 2.39394 19.7632 2.33615 19.6177 2.33615H17.7351C17.663 2.33615 17.5917 2.35033 17.5252 2.3779C17.4586 2.40548 17.3981 2.44589 17.3472 2.49682C17.2963 2.54777 17.2559 2.60824 17.2283 2.6748C17.2008 2.74136 17.1866 2.8127 17.1866 2.88474V6.17133C17.1866 6.1893 17.1875 6.20722 17.1892 6.22503C17.1902 6.23514 17.1915 6.24521 17.1931 6.25524C17.1953 6.26986 17.1981 6.28439 17.2016 6.29879C17.2083 6.32687 17.2172 6.35445 17.2283 6.38124L17.2313 6.38836C17.2352 6.39726 17.2392 6.40604 17.2435 6.4147C17.2571 6.44204 17.2728 6.46818 17.2907 6.49287C17.3077 6.51639 17.3266 6.53857 17.3472 6.55919C17.3982 6.61013 17.4586 6.65052 17.5252 6.67807C17.5917 6.70563 17.663 6.71982 17.7351 6.7198ZM19.0692 5.62274H18.2837V3.43333H19.0692V5.62274Z" fill="#1A1A1A"/>
<path fill-rule="evenodd" clip-rule="evenodd" d="M28.0485 29.6927H26.161C26.089 29.6927 26.0177 29.6785 25.9511 29.651C25.925 29.6402 25.8999 29.6274 25.8758 29.6128C25.8386 29.5901 25.8041 29.563 25.7731 29.5321C25.7221 29.4811 25.6817 29.4206 25.6542 29.3541C25.6266 29.2875 25.6124 29.2162 25.6124 29.1441V25.8576C25.6124 25.7856 25.6266 25.7142 25.6542 25.6477C25.6817 25.5811 25.7221 25.5206 25.7731 25.4697C25.824 25.4187 25.8845 25.3783 25.9511 25.3508C26.0177 25.3232 26.089 25.309 26.161 25.309H28.0485C28.1205 25.309 28.1918 25.3232 28.2584 25.3508C28.3249 25.3784 28.3854 25.4188 28.4363 25.4697C28.4873 25.5207 28.5277 25.5812 28.5552 25.6477C28.5828 25.7143 28.5969 25.7856 28.5969 25.8576V29.1446C28.5968 29.29 28.539 29.4294 28.4362 29.5322C28.3333 29.6349 28.1939 29.6927 28.0485 29.6927ZM26.7096 28.5955H27.4999V26.4062H26.7096V28.5955Z" fill="#1A1A1A"/>
<path fill-rule="evenodd" clip-rule="evenodd" d="M26.161 6.7198H28.0485C28.1205 6.71982 28.1918 6.70563 28.2584 6.67807C28.2866 6.6664 28.3136 6.65243 28.3394 6.63633C28.3744 6.61442 28.407 6.58856 28.4363 6.55919C28.4873 6.50826 28.5276 6.44779 28.5552 6.38124C28.5828 6.31469 28.5969 6.24336 28.5969 6.17133V2.88474C28.5969 2.8127 28.5828 2.74136 28.5552 2.6748C28.5277 2.60824 28.4873 2.54777 28.4363 2.49684C28.3854 2.44589 28.3249 2.40548 28.2584 2.3779C28.226 2.36449 28.1925 2.35425 28.1583 2.34726C28.1442 2.34437 28.13 2.34205 28.1157 2.34027C28.1109 2.33968 28.1061 2.33916 28.1013 2.33869C28.0837 2.33699 28.0661 2.33615 28.0485 2.33615H26.161C26.089 2.33613 26.0177 2.3503 25.9511 2.37787C25.9253 2.38856 25.9004 2.40118 25.8766 2.4156C25.8391 2.43836 25.8043 2.46561 25.7731 2.49679C25.7221 2.54774 25.6817 2.60821 25.6542 2.67477C25.6434 2.70079 25.6347 2.72754 25.628 2.75476C25.6177 2.79721 25.6124 2.84084 25.6124 2.88474V6.17133C25.6124 6.24337 25.6266 6.31469 25.6542 6.38125C25.6818 6.44779 25.7222 6.50827 25.7731 6.5592C25.8241 6.61013 25.8846 6.65053 25.9511 6.67809C26.0177 6.70565 26.089 6.71982 26.161 6.7198ZM27.4999 5.62274H26.7096V3.43333H27.4999V5.62274Z" fill="#1A1A1A"/>
<path fill-rule="evenodd" clip-rule="evenodd" d="M32.2217 29.6927H30.3342C30.1887 29.6927 30.0492 29.6349 29.9463 29.532C29.8434 29.4291 29.7856 29.2896 29.7856 29.1441V25.8576C29.7856 25.7121 29.8434 25.5726 29.9463 25.4697C30.0492 25.3668 30.1887 25.309 30.3342 25.309H32.2217C32.3672 25.309 32.5067 25.3668 32.6096 25.4697C32.7125 25.5726 32.7702 25.7121 32.7702 25.8576V29.1446C32.7701 29.29 32.7122 29.4294 32.6094 29.5322C32.5065 29.635 32.3671 29.6927 32.2217 29.6927ZM30.8828 28.5955H31.6731V26.4062H30.8828V28.5955Z" fill="#1A1A1A"/>
<path fill-rule="evenodd" clip-rule="evenodd" d="M30.3342 6.7198H32.2217C32.247 6.7198 32.2723 6.71806 32.2973 6.71458C32.3433 6.70818 32.3885 6.69595 32.4316 6.67809C32.4981 6.65053 32.5586 6.61013 32.6095 6.5592C32.6441 6.52461 32.6739 6.48562 32.698 6.44332C32.7094 6.42334 32.7196 6.4026 32.7285 6.38125C32.756 6.31469 32.7702 6.24337 32.7702 6.17133V2.88474C32.7702 2.73924 32.7125 2.5997 32.6096 2.49682C32.5067 2.39394 32.3672 2.33615 32.2217 2.33615H30.3342C30.1887 2.33615 30.0492 2.39394 29.9463 2.49682C29.8434 2.5997 29.7856 2.73924 29.7856 2.88474V6.17133C29.7856 6.24337 29.7998 6.31469 29.8274 6.38125C29.855 6.44779 29.8954 6.50827 29.9463 6.5592C29.9973 6.61013 30.0577 6.65053 30.1243 6.67809C30.1909 6.70565 30.2622 6.71982 30.3342 6.7198ZM31.6731 5.62274H30.8828V3.43333H31.6731V5.62274Z" fill="#1A1A1A"/>
<path fill-rule="evenodd" clip-rule="evenodd" d="M7.03482 29.6927H5.1522C5.08016 29.6927 5.00883 29.6785 4.94228 29.6509C4.87572 29.6233 4.81526 29.583 4.76433 29.532C4.7134 29.4811 4.673 29.4206 4.64544 29.354C4.63505 29.3289 4.62656 29.3032 4.62002 29.2769C4.60921 29.2336 4.60371 29.189 4.60373 29.1441V25.8576C4.60371 25.7856 4.61789 25.7143 4.64544 25.6477C4.673 25.5812 4.7134 25.5207 4.76433 25.4697C4.81526 25.4188 4.87572 25.3784 4.94228 25.3508C5.00883 25.3232 5.08016 25.309 5.1522 25.309H7.03482C7.18032 25.309 7.31985 25.3668 7.42273 25.4697C7.52562 25.5726 7.58341 25.7121 7.58341 25.8576V29.1446C7.58326 29.29 7.5254 29.4294 7.42255 29.5322C7.3197 29.635 7.18023 29.6927 7.03482 29.6927ZM5.70079 28.5955H6.48635V26.4062H5.70079V28.5955Z" fill="#1A1A1A"/>
<path fill-rule="evenodd" clip-rule="evenodd" d="M5.1522 6.7198H7.03482C7.10686 6.71982 7.17818 6.70565 7.24474 6.67809C7.3113 6.65053 7.37178 6.61013 7.42273 6.5592C7.47366 6.50827 7.51408 6.44779 7.54164 6.38125C7.56923 6.31469 7.58341 6.24337 7.58341 6.17133V2.88474C7.58341 2.73924 7.52562 2.5997 7.42273 2.49682C7.31985 2.39394 7.18032 2.33615 7.03482 2.33615H5.1522C5.08016 2.33615 5.00883 2.35033 4.94228 2.3779C4.87572 2.40548 4.81526 2.44589 4.76433 2.49682C4.7134 2.54777 4.673 2.60824 4.64544 2.6748C4.61789 2.74136 4.60371 2.8127 4.60373 2.88474V6.17133C4.60371 6.24336 4.61789 6.31469 4.64544 6.38124C4.673 6.44779 4.7134 6.50826 4.76433 6.55919C4.81528 6.61013 4.87574 6.65052 4.94228 6.67807C5.00884 6.70563 5.08016 6.71982 5.1522 6.7198ZM6.48635 5.62274H5.70079V3.43333H6.48635V5.62274Z" fill="#1A1A1A"/>
<path fill-rule="evenodd" clip-rule="evenodd" d="M2.84053 29.6927H0.957908C0.885867 29.6927 0.814533 29.6785 0.747989 29.6509C0.681429 29.6233 0.620968 29.583 0.570039 29.532C0.51911 29.4811 0.478707 29.4206 0.45115 29.354C0.423592 29.2875 0.409422 29.2161 0.409437 29.1441V25.8576C0.409422 25.8167 0.414 25.7759 0.42302 25.7362C0.427493 25.7165 0.433049 25.697 0.439675 25.6779C0.443199 25.6677 0.447024 25.6577 0.45115 25.6477C0.478707 25.5812 0.51911 25.5207 0.570039 25.4697C0.620968 25.4188 0.681429 25.3784 0.747989 25.3508C0.814533 25.3232 0.885867 25.309 0.957908 25.309H2.84053C2.98602 25.309 3.12556 25.3668 3.22844 25.4697C3.33131 25.5726 3.38912 25.7121 3.38912 25.8576V29.1446C3.38898 29.29 3.33113 29.4294 3.22826 29.5322C3.12539 29.635 2.98593 29.6927 2.84053 29.6927ZM1.5065 28.5955H2.29206V26.4062H1.5065V28.5955Z" fill="#1A1A1A"/>
<path fill-rule="evenodd" clip-rule="evenodd" d="M0.957908 6.7198H2.84053C2.91255 6.71982 2.98389 6.70565 3.05045 6.67809C3.11701 6.65053 3.17748 6.61013 3.22843 6.5592C3.27937 6.50827 3.31979 6.44779 3.34735 6.38125C3.37492 6.31469 3.38912 6.24337 3.38912 6.17133V2.88474C3.38912 2.73924 3.33131 2.5997 3.22844 2.49682C3.12556 2.39394 2.98602 2.33615 2.84053 2.33615H0.957908C0.885867 2.33615 0.814533 2.35033 0.747989 2.3779C0.681429 2.40548 0.620968 2.44589 0.570039 2.49682C0.51911 2.54777 0.478707 2.60824 0.45115 2.6748C0.423592 2.74136 0.409422 2.8127 0.409437 2.88474V6.17133C0.409422 6.24336 0.423592 6.31469 0.45115 6.38124C0.478707 6.44779 0.51911 6.50826 0.570039 6.55919C0.620983 6.61013 0.681444 6.65052 0.747989 6.67807C0.814548 6.70563 0.885867 6.71982 0.957908 6.7198ZM2.29206 5.62274H1.5065V3.43333H2.29206V5.62274Z" fill="#1A1A1A"/>
<path fill-rule="evenodd" clip-rule="evenodd" d="M11.2713 29.6927H9.38387C9.31183 29.6927 9.24048 29.6785 9.17392 29.651C9.10736 29.6234 9.04685 29.583 8.99592 29.5321C8.97719 29.5133 8.95987 29.4933 8.94409 29.4722C8.91699 29.4358 8.89443 29.3961 8.87702 29.3541C8.84943 29.2875 8.83525 29.2162 8.83528 29.1441V25.8576C8.83525 25.7856 8.84943 25.7142 8.87702 25.6477C8.90458 25.5811 8.94497 25.5206 8.99592 25.4697C9.04685 25.4187 9.10736 25.3783 9.17392 25.3508C9.24048 25.3232 9.31183 25.309 9.38387 25.309H11.2713C11.3433 25.309 11.4147 25.3232 11.4812 25.3508C11.5478 25.3784 11.6082 25.4188 11.6592 25.4697C11.6765 25.4871 11.6926 25.5055 11.7074 25.525C11.7361 25.5626 11.7599 25.6038 11.778 25.6477C11.8056 25.7143 11.8198 25.7856 11.8198 25.8576V29.1446C11.8197 29.29 11.7618 29.4294 11.659 29.5322C11.5562 29.6349 11.4167 29.6927 11.2713 29.6927ZM9.93246 28.5955H10.7227V26.4062H9.93246V28.5955Z" fill="#1A1A1A"/>
<path fill-rule="evenodd" clip-rule="evenodd" d="M9.38387 6.7198H11.2713C11.3433 6.71982 11.4147 6.70563 11.4812 6.67807C11.5478 6.65052 11.6082 6.61013 11.6592 6.55919C11.7101 6.50826 11.7505 6.44779 11.778 6.38124C11.8056 6.31469 11.8198 6.24336 11.8198 6.17133V2.88474C11.8198 2.8127 11.8056 2.74136 11.778 2.6748C11.7505 2.60824 11.7101 2.54777 11.6592 2.49684C11.6082 2.44589 11.5478 2.40548 11.4812 2.3779C11.4147 2.35033 11.3433 2.33615 11.2713 2.33615H9.38387C9.31183 2.33613 9.24048 2.3503 9.17392 2.37787C9.10736 2.40543 9.04685 2.44585 8.99592 2.49679C8.94497 2.54774 8.90458 2.60821 8.87702 2.67477C8.84943 2.74135 8.83525 2.81268 8.83528 2.88474V6.17133C8.83528 6.24337 8.84946 6.31469 8.87705 6.38125C8.90461 6.44779 8.94503 6.50827 8.99596 6.5592C9.04691 6.61013 9.10739 6.65053 9.17395 6.67809C9.24051 6.70565 9.31183 6.71982 9.38387 6.7198ZM10.7227 5.62274H9.93246V3.43333H10.7227V5.62274Z" fill="#1A1A1A"/>
<path fill-rule="evenodd" clip-rule="evenodd" d="M15.4445 29.6927H13.557C13.4116 29.6927 13.272 29.6349 13.1691 29.532C13.0663 29.4291 13.0085 29.2896 13.0085 29.1441V25.8576C13.0085 25.7121 13.0663 25.5726 13.1691 25.4697C13.272 25.3668 13.4116 25.309 13.557 25.309H15.4445C15.59 25.309 15.7295 25.3668 15.8324 25.4697C15.9353 25.5726 15.9931 25.7121 15.9931 25.8576V29.1446C15.9929 29.29 15.9351 29.4294 15.8322 29.5322C15.7293 29.635 15.5899 29.6927 15.4445 29.6927ZM14.1056 28.5955H14.8959V26.4062H14.1056V28.5955Z" fill="#1A1A1A"/>
<path fill-rule="evenodd" clip-rule="evenodd" d="M13.557 6.7198H15.4445C15.5165 6.71982 15.5878 6.70565 15.6544 6.67809C15.721 6.65053 15.7814 6.61013 15.8324 6.5592C15.8609 6.53072 15.886 6.49927 15.9075 6.46543C15.9245 6.43874 15.9392 6.41058 15.9513 6.38125C15.9789 6.31469 15.9931 6.24337 15.9931 6.17133V2.88474C15.9931 2.73924 15.9353 2.5997 15.8324 2.49682C15.7295 2.39394 15.59 2.33615 15.4445 2.33615H13.557C13.4116 2.33615 13.272 2.39394 13.1691 2.49682C13.0663 2.5997 13.0085 2.73924 13.0085 2.88474V6.17133C13.0085 6.24337 13.0226 6.31469 13.0502 6.38125C13.0778 6.44779 13.1182 6.50827 13.1691 6.5592C13.2201 6.61013 13.2806 6.65053 13.3471 6.67809C13.4137 6.70565 13.485 6.71982 13.557 6.7198ZM14.8959 5.62274H14.1056V3.43333H14.8959V5.62274Z" fill="#1A1A1A"/>
<path fill-rule="evenodd" clip-rule="evenodd" d="M36.3949 29.6927H34.5122C34.4402 29.6927 34.3689 29.6785 34.3023 29.6509C34.2358 29.6233 34.1753 29.583 34.1244 29.532C34.0965 29.5041 34.0718 29.4734 34.0506 29.4404C34.0331 29.413 34.018 29.3842 34.0055 29.354C33.9779 29.2875 33.9637 29.2161 33.9638 29.1441V25.8576C33.9637 25.7856 33.9779 25.7143 34.0055 25.6477C34.0331 25.5812 34.0734 25.5207 34.1244 25.4697C34.1753 25.4188 34.2358 25.3784 34.3023 25.3508C34.3689 25.3232 34.4402 25.309 34.5122 25.309H36.3949C36.5404 25.309 36.6799 25.3668 36.7828 25.4697C36.8857 25.5726 36.9435 25.7121 36.9435 25.8576V29.1446C36.9433 29.29 36.8855 29.4294 36.7826 29.5322C36.6798 29.635 36.5403 29.6927 36.3949 29.6927ZM35.0608 28.5955H35.8464V26.4062H35.0608V28.5955Z" fill="#1A1A1A"/>
<path fill-rule="evenodd" clip-rule="evenodd" d="M34.5122 6.7198H36.3949C36.4669 6.71982 36.5382 6.70565 36.6048 6.67809C36.6713 6.65053 36.7318 6.61013 36.7828 6.5592C36.8337 6.50827 36.8741 6.44779 36.9017 6.38125C36.9293 6.31469 36.9435 6.24337 36.9435 6.17133V2.88474C36.9435 2.73924 36.8857 2.5997 36.7828 2.49682C36.6799 2.39394 36.5404 2.33615 36.3949 2.33615H34.5122C34.4402 2.33615 34.3689 2.35033 34.3023 2.3779C34.2358 2.40548 34.1753 2.44589 34.1244 2.49682C34.0734 2.54777 34.0331 2.60824 34.0055 2.6748C33.9942 2.70206 33.9852 2.73011 33.9784 2.75869C33.9764 2.76729 33.9746 2.77595 33.973 2.78464C33.9696 2.8027 33.9672 2.82092 33.9657 2.83924C33.9644 2.85435 33.9638 2.86953 33.9638 2.88474V6.17133C33.9637 6.24336 33.9779 6.31469 34.0055 6.38124C34.0331 6.44779 34.0734 6.50826 34.1244 6.55919C34.1753 6.61013 34.2358 6.65052 34.3023 6.67807C34.3689 6.70563 34.4402 6.71982 34.5122 6.7198ZM35.8464 5.62274H35.0608V3.43333H35.8464V5.62274Z" fill="#1A1A1A"/>
<path fill-rule="evenodd" clip-rule="evenodd" d="M69.8166 6.7734H67.9291C67.8571 6.77341 67.7858 6.75923 67.7192 6.73167C67.6527 6.70411 67.5922 6.66372 67.5413 6.61278C67.4903 6.56185 67.4499 6.50139 67.4224 6.43483C67.3948 6.36828 67.3806 6.29695 67.3807 6.22493V2.93833C67.3806 2.86629 67.3948 2.79496 67.4224 2.7284C67.4499 2.66184 67.4903 2.60136 67.5413 2.55043C67.5922 2.49949 67.6527 2.45907 67.7192 2.4315C67.7858 2.40392 67.8571 2.38974 67.9291 2.38974H69.8166C69.9621 2.38974 70.1016 2.44754 70.2045 2.55042C70.3073 2.6533 70.3651 2.79283 70.3651 2.93833V6.22493C70.3652 6.29697 70.351 6.36828 70.3234 6.43484C70.3085 6.4708 70.2898 6.505 70.2678 6.53688C70.249 6.56397 70.2279 6.58939 70.2045 6.61279C70.1535 6.66372 70.093 6.70413 70.0265 6.73168C69.9599 6.75924 69.8886 6.77341 69.8166 6.7734ZM68.4782 5.67633H69.2677V3.48692H68.4782V5.67633Z" fill="#1A1A1A"/>
<path fill-rule="evenodd" clip-rule="evenodd" d="M72.1028 6.7734H73.9903C74.0623 6.77341 74.1336 6.75923 74.2002 6.73167C74.2667 6.70411 74.3272 6.66372 74.3781 6.61278C74.4073 6.58364 74.433 6.55138 74.4548 6.51664C74.4711 6.49067 74.4852 6.46331 74.497 6.43483C74.5246 6.36828 74.5387 6.29695 74.5387 6.22493V2.93833C74.5387 2.86629 74.5246 2.79496 74.497 2.7284C74.4695 2.66184 74.429 2.60136 74.3781 2.55043C74.3272 2.49949 74.2667 2.45907 74.2002 2.4315C74.1629 2.41606 74.1242 2.40483 74.0846 2.39792C74.0535 2.3925 74.0219 2.38974 73.9903 2.38974H72.1028C71.9573 2.38974 71.8178 2.44754 71.7149 2.55042C71.612 2.6533 71.5542 2.79283 71.5542 2.93833V6.22493C71.5542 6.29697 71.5684 6.36828 71.596 6.43484C71.6133 6.4766 71.6356 6.51597 71.6625 6.55208C71.6784 6.57352 71.6959 6.59382 71.7149 6.61279C71.7659 6.66372 71.8263 6.70413 71.8929 6.73168C71.9595 6.75924 72.0308 6.77341 72.1028 6.7734ZM73.4414 5.67633H72.6519V3.48692H73.4414V5.67633Z" fill="#1A1A1A"/>
</g>
</g>
</svg>
