<svg width="79" height="34" viewBox="0 0 79 34" fill="none" xmlns="http://www.w3.org/2000/svg">
<g id="Filme">
<g id="Union">
<path d="M28.85 33.3277H0.596181C0.523455 33.3288 0.451237 33.3154 0.383732 33.2883C0.316227 33.2612 0.254776 33.221 0.202963 33.17C0.151149 33.1189 0.110001 33.0581 0.0819163 32.991C0.0538316 32.9239 0.0393677 32.8519 0.0393677 32.7792C0.0393677 32.7065 0.0538316 32.6344 0.0819163 32.5673C0.110001 32.5002 0.151149 32.4394 0.202963 32.3884C0.254776 32.3373 0.316227 32.2971 0.383732 32.27C0.451237 32.2429 0.523455 32.2296 0.596181 32.2307H28.85C29.1886 32.2302 29.5132 32.0955 29.7526 31.8561C29.992 31.6167 30.1267 31.2921 30.1271 30.9535V22.6684C30.1277 22.0401 30.3776 21.4378 30.8218 20.9935C31.266 20.5492 31.8683 20.2993 32.4966 20.2985H39.496C39.8346 20.2981 40.1592 20.1634 40.3986 19.924C40.6381 19.6846 40.7728 19.3599 40.7732 19.0213V2.61353C40.7728 2.27489 40.6382 1.95022 40.3987 1.71074C40.1593 1.47126 39.8347 1.33654 39.496 1.33612H0.596181C0.523455 1.33721 0.451237 1.32382 0.383732 1.29674C0.316227 1.26967 0.254776 1.22945 0.202963 1.1784C0.151149 1.12735 0.110001 1.06651 0.0819163 0.999422C0.0538316 0.932336 0.0393677 0.860325 0.0393677 0.787591C0.0393677 0.714857 0.0538316 0.642846 0.0819163 0.575759C0.110001 0.508657 0.151149 0.447819 0.202963 0.396785C0.254776 0.345736 0.316227 0.305499 0.383732 0.278423C0.451237 0.251347 0.523455 0.237975 0.596181 0.239059H39.496C40.1255 0.239752 40.7291 0.490134 41.1742 0.935302C41.6193 1.38045 41.8696 1.98401 41.8702 2.61353V19.0213C41.8696 19.6508 41.6192 20.2543 41.1741 20.6994C40.729 21.1445 40.1255 21.3949 39.496 21.3956H32.4966C32.1592 21.396 31.8357 21.5302 31.5972 21.7689C31.3586 22.0075 31.2245 22.331 31.2241 22.6684V30.9535C31.2235 31.5829 30.9732 32.1864 30.5281 32.6315C30.083 33.0767 29.4795 33.327 28.85 33.3277Z" fill="#1A1A1A"/>
<path fill-rule="evenodd" clip-rule="evenodd" d="M20.2842 29.7463H18.3968C18.3247 29.7463 18.2534 29.7321 18.1868 29.7045C18.1202 29.677 18.0598 29.6366 18.0088 29.5856C17.9579 29.5347 17.9175 29.4742 17.8899 29.4076C17.8623 29.3411 17.8482 29.2697 17.8482 29.1977V25.9112C17.8482 25.8392 17.8623 25.7678 17.8899 25.7013C17.9175 25.6347 17.9579 25.5742 18.0088 25.5233C18.0598 25.4723 18.1202 25.4319 18.1868 25.4044C18.2534 25.3768 18.3247 25.3626 18.3968 25.3626H20.2842C20.3562 25.3626 20.4276 25.3768 20.4941 25.4044C20.5607 25.4319 20.6211 25.4724 20.6721 25.5233C20.723 25.5743 20.7634 25.6347 20.7909 25.7013C20.8185 25.7678 20.8327 25.8392 20.8327 25.9112V29.1982C20.8326 29.3436 20.7747 29.483 20.6719 29.5858C20.569 29.6885 20.4296 29.7463 20.2842 29.7463ZM18.9453 28.6491H19.7356V26.4598H18.9453V28.6491Z" fill="#1A1A1A"/>
<path fill-rule="evenodd" clip-rule="evenodd" d="M18.3968 6.7734H20.2842C20.3562 6.77341 20.4276 6.75923 20.4941 6.73167C20.5606 6.70411 20.6211 6.66372 20.6721 6.61278C20.723 6.56185 20.7634 6.50139 20.7909 6.43483C20.8185 6.36828 20.8327 6.29695 20.8327 6.22493V2.93833C20.8327 2.86629 20.8185 2.79496 20.7909 2.7284C20.7634 2.66184 20.723 2.60136 20.6721 2.55043C20.6211 2.49949 20.5607 2.45907 20.4941 2.4315C20.4276 2.40392 20.3562 2.38974 20.2842 2.38974H18.3968C18.3247 2.38972 18.2534 2.40389 18.1868 2.43147C18.1202 2.45902 18.0598 2.49944 18.0088 2.55039C17.9579 2.60133 17.9175 2.66181 17.8899 2.72837C17.8623 2.79494 17.8482 2.86627 17.8482 2.93833V6.22493C17.8482 6.29697 17.8624 6.36828 17.8899 6.43484C17.9175 6.50139 17.9579 6.56187 18.0089 6.61279C18.0598 6.66372 18.1203 6.70413 18.1868 6.73168C18.2534 6.75924 18.3247 6.77341 18.3968 6.7734ZM19.7356 5.67633H18.9453V3.48692H19.7356V5.67633Z" fill="#1A1A1A"/>
<path fill-rule="evenodd" clip-rule="evenodd" d="M24.4574 29.7463H22.57C22.4245 29.7463 22.2849 29.6885 22.182 29.5856C22.0792 29.4827 22.0214 29.3432 22.0214 29.1977V25.9112C22.0214 25.7657 22.0792 25.6262 22.182 25.5233C22.2849 25.4204 22.4245 25.3626 22.57 25.3626H24.4574C24.6029 25.3626 24.7424 25.4204 24.8453 25.5233C24.9482 25.6262 25.006 25.7657 25.006 25.9112V29.1982C25.0058 29.3436 24.948 29.483 24.8451 29.5858C24.7423 29.6886 24.6028 29.7463 24.4574 29.7463ZM23.1185 28.6491H23.9088V26.4598H23.1185V28.6491Z" fill="#1A1A1A"/>
<path fill-rule="evenodd" clip-rule="evenodd" d="M22.57 6.7734H24.4574C24.5294 6.77341 24.6008 6.75924 24.6673 6.73168C24.7339 6.70413 24.7943 6.66372 24.8453 6.61279C24.8962 6.56187 24.9366 6.50139 24.9642 6.43484C24.9918 6.36828 25.006 6.29697 25.006 6.22493V2.93833C25.006 2.79283 24.9482 2.6533 24.8453 2.55042C24.7424 2.44754 24.6029 2.38974 24.4574 2.38974H22.57C22.4245 2.38974 22.2849 2.44754 22.182 2.55042C22.0792 2.6533 22.0214 2.79283 22.0214 2.93833V6.22493C22.0214 6.29697 22.0356 6.36828 22.0631 6.43484C22.0907 6.50139 22.1311 6.56187 22.182 6.61279C22.233 6.66372 22.2935 6.70413 22.36 6.73168C22.4266 6.75924 22.4979 6.77341 22.57 6.7734ZM23.9088 5.67633H23.1185V3.48692H23.9088V5.67633Z" fill="#1A1A1A"/>
<path fill-rule="evenodd" clip-rule="evenodd" d="M28.6306 29.7463H26.748C26.6759 29.7463 26.6046 29.7321 26.538 29.7045C26.4715 29.6769 26.411 29.6365 26.3601 29.5856C26.3092 29.5347 26.2688 29.4742 26.2412 29.4076C26.2137 29.3411 26.1995 29.2697 26.1995 29.1977V25.9112C26.1995 25.8392 26.2137 25.7678 26.2412 25.7013C26.2688 25.6347 26.3092 25.5743 26.3601 25.5233C26.411 25.4724 26.4715 25.4319 26.538 25.4044C26.6046 25.3768 26.6759 25.3626 26.748 25.3626H28.6306C28.7761 25.3626 28.9156 25.4204 29.0185 25.5233C29.1214 25.6262 29.1792 25.7657 29.1792 25.9112V29.1982C29.179 29.3436 29.1212 29.483 29.0183 29.5858C28.9155 29.6886 28.776 29.7463 28.6306 29.7463ZM27.2966 28.6491H28.0821V26.4598H27.2966V28.6491Z" fill="#1A1A1A"/>
<path fill-rule="evenodd" clip-rule="evenodd" d="M26.748 6.7734H28.6306C28.7026 6.77341 28.774 6.75924 28.8405 6.73168C28.9071 6.70413 28.9675 6.66372 29.0185 6.61279C29.0694 6.56187 29.1098 6.50139 29.1374 6.43484C29.165 6.36828 29.1792 6.29697 29.1792 6.22493V2.93833C29.1792 2.79283 29.1214 2.6533 29.0185 2.55042C28.9156 2.44754 28.7761 2.38974 28.6306 2.38974H26.748C26.6759 2.38974 26.6046 2.40392 26.538 2.4315C26.4715 2.45907 26.411 2.49949 26.3601 2.55043C26.3092 2.60136 26.2688 2.66184 26.2412 2.7284C26.2137 2.79496 26.1995 2.86629 26.1995 2.93833V6.22493C26.1995 6.29695 26.2137 6.36828 26.2412 6.43483C26.2688 6.50139 26.3092 6.56185 26.3601 6.61278C26.411 6.66372 26.4715 6.70411 26.5381 6.73167C26.6046 6.75923 26.6759 6.77341 26.748 6.7734ZM28.0821 5.67633H27.2966V3.48692H28.0821V5.67633Z" fill="#1A1A1A"/>
<path fill-rule="evenodd" clip-rule="evenodd" d="M3.54345 29.6927H1.66083C1.5888 29.6927 1.51747 29.6785 1.45091 29.6509C1.38436 29.6233 1.3239 29.583 1.27296 29.532C1.22203 29.4811 1.18164 29.4206 1.15408 29.354C1.12653 29.2875 1.11235 29.2161 1.11237 29.1441V25.8576C1.11235 25.7856 1.12653 25.7143 1.15408 25.6477C1.18164 25.5812 1.22203 25.5207 1.27296 25.4697C1.3239 25.4188 1.38436 25.3784 1.45091 25.3508C1.51747 25.3232 1.5888 25.309 1.66083 25.309H3.54345C3.68895 25.309 3.82848 25.3668 3.93136 25.4697C4.03424 25.5726 4.09204 25.7121 4.09204 25.8576V29.1446C4.09191 29.29 4.03406 29.4294 3.93119 29.5322C3.82832 29.635 3.68886 29.6927 3.54345 29.6927ZM2.20942 28.5955H2.99499V26.4062H2.20942V28.5955Z" fill="#1A1A1A"/>
<path fill-rule="evenodd" clip-rule="evenodd" d="M1.66083 6.7198H3.54345C3.61549 6.71982 3.68682 6.70565 3.75338 6.67809C3.81994 6.65053 3.88041 6.61013 3.93135 6.5592C3.9823 6.50827 4.02271 6.44779 4.05028 6.38125C4.07785 6.31469 4.09204 6.24337 4.09204 6.17133V2.88474C4.09204 2.73924 4.03424 2.5997 3.93136 2.49682C3.82848 2.39394 3.68895 2.33615 3.54345 2.33615H1.66083C1.5888 2.33615 1.51747 2.35033 1.45091 2.3779C1.38436 2.40548 1.3239 2.44589 1.27296 2.49682C1.22203 2.54777 1.18164 2.60824 1.15408 2.6748C1.12653 2.74136 1.11235 2.8127 1.11237 2.88474V6.17133C1.11235 6.24336 1.12653 6.31469 1.15408 6.38124C1.18164 6.44779 1.22204 6.50826 1.27297 6.55919C1.3239 6.61013 1.38438 6.65052 1.45093 6.67807C1.51747 6.70563 1.5888 6.71982 1.66083 6.7198ZM2.99499 5.62274H2.20942V3.43333H2.99499V5.62274Z" fill="#1A1A1A"/>
<path fill-rule="evenodd" clip-rule="evenodd" d="M7.77994 29.6927H5.8925C5.82046 29.6927 5.74911 29.6785 5.68255 29.651C5.61598 29.6234 5.5555 29.583 5.50456 29.5321C5.45361 29.4811 5.41321 29.4206 5.38564 29.3541C5.35808 29.2875 5.3439 29.2162 5.34391 29.1441V25.8576C5.3439 25.7856 5.35808 25.7142 5.38564 25.6477C5.41321 25.5811 5.45361 25.5206 5.50456 25.4697C5.5555 25.4187 5.61598 25.3783 5.68255 25.3508C5.74911 25.3232 5.82046 25.309 5.8925 25.309H7.77994C7.85197 25.309 7.9233 25.3232 7.98985 25.3508C8.0564 25.3784 8.11687 25.4188 8.1678 25.4697C8.21873 25.5207 8.25913 25.5812 8.28669 25.6477C8.31424 25.7143 8.32841 25.7856 8.3284 25.8576V29.1446C8.3283 29.29 8.27048 29.4294 8.16763 29.5322C8.06478 29.6349 7.92533 29.6927 7.77994 29.6927ZM6.44109 28.5955H7.23135V26.4062H6.44109V28.5955Z" fill="#1A1A1A"/>
<path fill-rule="evenodd" clip-rule="evenodd" d="M5.8925 6.7198H7.77994C7.85197 6.71982 7.9233 6.70563 7.98984 6.67807C8.05639 6.65052 8.11686 6.61013 8.16779 6.55919C8.21873 6.50826 8.25912 6.44779 8.28668 6.38124C8.31424 6.31469 8.32841 6.24336 8.3284 6.17133V2.88474C8.32841 2.8127 8.31424 2.74136 8.28669 2.6748C8.25913 2.60824 8.21873 2.54777 8.1678 2.49684C8.11687 2.44589 8.0564 2.40548 7.98985 2.3779C7.9233 2.35033 7.85197 2.33615 7.77994 2.33615H5.8925C5.82046 2.33613 5.74911 2.3503 5.68255 2.37787C5.61598 2.40543 5.5555 2.44585 5.50456 2.49679C5.45361 2.54774 5.41321 2.60821 5.38564 2.67477C5.35808 2.74135 5.3439 2.81268 5.34391 2.88474V6.17133C5.34391 6.24337 5.35811 6.31469 5.38568 6.38125C5.41324 6.44779 5.45365 6.50827 5.5046 6.5592C5.55554 6.61013 5.61602 6.65053 5.68258 6.67809C5.74913 6.70565 5.82046 6.71982 5.8925 6.7198ZM7.23135 5.62274H6.44109V3.43333H7.23135V5.62274Z" fill="#1A1A1A"/>
<path fill-rule="evenodd" clip-rule="evenodd" d="M11.9531 29.6927H10.0657C9.9202 29.6927 9.78067 29.6349 9.67779 29.532C9.5749 29.4291 9.51711 29.2896 9.51711 29.1441V25.8576C9.51711 25.7121 9.5749 25.5726 9.67779 25.4697C9.78067 25.3668 9.9202 25.309 10.0657 25.309H11.9531C12.0986 25.309 12.2382 25.3668 12.341 25.4697C12.4439 25.5726 12.5017 25.7121 12.5017 25.8576V29.1446C12.5016 29.29 12.4437 29.4294 12.3409 29.5322C12.238 29.635 12.0985 29.6927 11.9531 29.6927ZM10.6143 28.5955H11.4045V26.4062H10.6143V28.5955Z" fill="#1A1A1A"/>
<path fill-rule="evenodd" clip-rule="evenodd" d="M10.0657 6.7198H11.9531C12.0252 6.71982 12.0965 6.70565 12.1631 6.67809C12.2296 6.65053 12.2901 6.61013 12.341 6.5592C12.392 6.50827 12.4324 6.44779 12.46 6.38125C12.4875 6.31469 12.5017 6.24337 12.5017 6.17133V2.88474C12.5017 2.73924 12.4439 2.5997 12.341 2.49682C12.2382 2.39394 12.0986 2.33615 11.9531 2.33615H10.0657C9.9202 2.33615 9.78067 2.39394 9.67779 2.49682C9.5749 2.5997 9.51711 2.73924 9.51711 2.88474V6.17133C9.51711 6.24337 9.5313 6.31469 9.55887 6.38125C9.58644 6.44779 9.62685 6.50827 9.67779 6.5592C9.72874 6.61013 9.78921 6.65053 9.85577 6.67809C9.92233 6.70565 9.99366 6.71982 10.0657 6.7198ZM11.4045 5.62274H10.6143V3.43333H11.4045V5.62274Z" fill="#1A1A1A"/>
<path fill-rule="evenodd" clip-rule="evenodd" d="M16.1263 29.6927H14.2437C14.1717 29.6927 14.1003 29.6785 14.0338 29.6509C13.9672 29.6233 13.9068 29.583 13.8558 29.532C13.8049 29.4811 13.7645 29.4206 13.737 29.354C13.7094 29.2875 13.6952 29.2161 13.6952 29.1441V25.8576C13.6952 25.7856 13.7094 25.7143 13.737 25.6477C13.7645 25.5812 13.8049 25.5207 13.8558 25.4697C13.9068 25.4188 13.9672 25.3784 14.0338 25.3508C14.1003 25.3232 14.1717 25.309 14.2437 25.309H16.1263C16.2718 25.309 16.4114 25.3668 16.5142 25.4697C16.6171 25.5726 16.6749 25.7121 16.6749 25.8576V29.1446C16.6748 29.29 16.6169 29.4294 16.5141 29.5322C16.4112 29.635 16.2717 29.6927 16.1263 29.6927ZM14.7923 28.5955H15.5779V26.4062H14.7923V28.5955Z" fill="#1A1A1A"/>
<path fill-rule="evenodd" clip-rule="evenodd" d="M14.2437 6.7198H16.1263C16.1984 6.71982 16.2697 6.70565 16.3363 6.67809C16.4028 6.65053 16.4633 6.61013 16.5142 6.5592C16.5652 6.50827 16.6056 6.44779 16.6332 6.38125C16.6607 6.31469 16.6749 6.24337 16.6749 6.17133V2.88474C16.6749 2.73924 16.6171 2.5997 16.5142 2.49682C16.4114 2.39394 16.2718 2.33615 16.1263 2.33615H14.2437C14.1717 2.33615 14.1003 2.35033 14.0338 2.3779C13.9672 2.40548 13.9068 2.44589 13.8558 2.49682C13.8049 2.54777 13.7645 2.60824 13.737 2.6748C13.7094 2.74136 13.6952 2.8127 13.6952 2.88474V6.17133C13.6952 6.24336 13.7094 6.31469 13.737 6.38124C13.7645 6.44779 13.8049 6.50826 13.8558 6.55919C13.9068 6.61013 13.9673 6.65052 14.0338 6.67807C14.1004 6.70563 14.1717 6.71982 14.2437 6.7198ZM15.5779 5.62274H14.7923V3.43333H15.5779V5.62274Z" fill="#1A1A1A"/>
<path fill-rule="evenodd" clip-rule="evenodd" d="M32.8081 6.7734H30.9207C30.8486 6.77341 30.7773 6.75923 30.7108 6.73167C30.6442 6.70411 30.5837 6.66372 30.5328 6.61278C30.4819 6.56185 30.4415 6.50139 30.4139 6.43483C30.3864 6.36828 30.3722 6.29695 30.3722 6.22493V2.93833C30.3722 2.86629 30.3864 2.79496 30.4139 2.7284C30.4415 2.66184 30.4819 2.60136 30.5328 2.55043C30.5837 2.49949 30.6442 2.45907 30.7107 2.4315C30.7773 2.40392 30.8486 2.38974 30.9207 2.38974H32.8081C32.9536 2.38974 33.0931 2.44754 33.196 2.55042C33.2989 2.6533 33.3567 2.79283 33.3567 2.93833V6.22493C33.3567 6.29697 33.3425 6.36828 33.3149 6.43484C33.2874 6.50139 33.2469 6.56187 33.196 6.61279C33.1451 6.66372 33.0846 6.70413 33.018 6.73168C32.9515 6.75924 32.8801 6.77341 32.8081 6.7734ZM31.4698 5.67633H32.2593V3.48692H31.4698V5.67633Z" fill="#1A1A1A"/>
<path fill-rule="evenodd" clip-rule="evenodd" d="M35.0944 6.7734H36.9818C37.0538 6.77341 37.1251 6.75923 37.1917 6.73167C37.2582 6.70411 37.3187 6.66372 37.3697 6.61278C37.4206 6.56185 37.461 6.50139 37.4885 6.43483C37.5161 6.36828 37.5303 6.29695 37.5303 6.22493V2.93833C37.5303 2.86629 37.5161 2.79496 37.4885 2.7284C37.461 2.66184 37.4206 2.60136 37.3697 2.55043C37.3187 2.49949 37.2583 2.45907 37.1917 2.4315C37.1252 2.40392 37.0538 2.38974 36.9818 2.38974H35.0944C34.9489 2.38974 34.8093 2.44754 34.7064 2.55042C34.6036 2.6533 34.5458 2.79283 34.5458 2.93833V6.22493C34.5458 6.29697 34.56 6.36828 34.5875 6.43484C34.6151 6.50139 34.6555 6.56187 34.7065 6.61279C34.7574 6.66372 34.8179 6.70413 34.8844 6.73168C34.951 6.75924 35.0223 6.77341 35.0944 6.7734ZM36.4329 5.67633H35.6434V3.48692H36.4329V5.67633Z" fill="#1A1A1A"/>
</g>
</g>
</svg>
