<svg width="79" height="34" viewBox="0 0 79 34" fill="none" xmlns="http://www.w3.org/2000/svg">
<g id="Filme">
<g id="Union">
<path d="M47.3543 33.3277H0.596181C0.523462 33.3288 0.45124 33.3154 0.383732 33.2883C0.316223 33.2612 0.254784 33.221 0.202966 33.17C0.151149 33.1189 0.110008 33.0581 0.0819238 32.991C0.0538241 32.9239 0.0393677 32.8519 0.0393677 32.7792C0.0393677 32.7065 0.0538241 32.6344 0.0819238 32.5673C0.110008 32.5002 0.151149 32.4394 0.202966 32.3884C0.254784 32.3373 0.316223 32.2971 0.383732 32.27C0.45124 32.2429 0.523462 32.2296 0.596181 32.2307H47.3543C47.6929 32.2302 48.0174 32.0955 48.2569 31.8561C48.4963 31.6167 48.6309 31.2921 48.6313 30.9535V22.6684C48.632 22.0401 48.8818 21.4378 49.326 20.9935C49.7703 20.5492 50.3726 20.2993 51.0009 20.2985H58.0003C58.3389 20.2981 58.6635 20.1634 58.9029 19.924C59.1423 19.6846 59.277 19.3599 59.2774 19.0213V2.61353C59.2771 2.27489 59.1424 1.95022 58.903 1.71074C58.6635 1.47126 58.3389 1.33654 58.0003 1.33612H0.596181C0.523462 1.33721 0.45124 1.32382 0.383732 1.29674C0.316223 1.26967 0.254784 1.22945 0.202966 1.1784C0.151149 1.12735 0.110008 1.06651 0.0819238 0.999422C0.0538241 0.932336 0.0393677 0.860325 0.0393677 0.787591C0.0393677 0.714857 0.0538241 0.642846 0.0819238 0.575759C0.110008 0.508657 0.151149 0.447819 0.202966 0.396785C0.254784 0.345736 0.316223 0.305499 0.383732 0.278423C0.45124 0.251347 0.523462 0.237975 0.596181 0.239059H58.0003C58.6298 0.239752 59.2333 0.490134 59.6784 0.935302C60.1235 1.38045 60.3739 1.98401 60.3745 2.61353V19.0213C60.3738 19.6508 60.1234 20.2543 59.6783 20.6994C59.2332 21.1445 58.6297 21.3949 58.0003 21.3956H51.0009C50.6634 21.396 50.34 21.5302 50.1014 21.7689C49.8629 22.0075 49.7287 22.331 49.7284 22.6684V30.9535C49.7277 31.5829 49.4774 32.1864 49.0323 32.6315C48.5872 33.0767 47.9837 33.327 47.3543 33.3277Z" fill="#1A1A1A"/>
<path fill-rule="evenodd" clip-rule="evenodd" d="M38.7884 29.7463H36.901C36.8289 29.7463 36.7576 29.7321 36.691 29.7045C36.6245 29.677 36.564 29.6366 36.5131 29.5856C36.4621 29.5347 36.4217 29.4742 36.3941 29.4076C36.3666 29.3411 36.3524 29.2697 36.3524 29.1977V25.9112C36.3524 25.8392 36.3666 25.7678 36.3941 25.7013C36.4217 25.6347 36.4621 25.5742 36.5131 25.5233C36.564 25.4723 36.6245 25.4319 36.691 25.4044C36.7576 25.3768 36.8289 25.3626 36.901 25.3626H38.7884C38.8605 25.3626 38.9318 25.3768 38.9983 25.4044C39.0649 25.4319 39.1254 25.4724 39.1763 25.5233C39.2272 25.5743 39.2676 25.6347 39.2952 25.7013C39.3227 25.7678 39.3369 25.8392 39.3369 25.9112V29.1982C39.3368 29.3436 39.279 29.483 39.1761 29.5858C39.0733 29.6885 38.9338 29.7463 38.7884 29.7463ZM37.4496 28.6491H38.2398V26.4598H37.4496V28.6491Z" fill="#1A1A1A"/>
<path fill-rule="evenodd" clip-rule="evenodd" d="M36.901 6.7734H38.7884C38.8605 6.77341 38.9318 6.75923 38.9983 6.73167C39.0649 6.70411 39.1253 6.66372 39.1763 6.61278C39.2272 6.56185 39.2676 6.50139 39.2952 6.43483C39.3227 6.36828 39.3369 6.29695 39.3369 6.22493V2.93833C39.3369 2.86629 39.3227 2.79496 39.2952 2.7284C39.2676 2.66184 39.2272 2.60136 39.1763 2.55043C39.1254 2.49949 39.0649 2.45907 38.9983 2.4315C38.9318 2.40392 38.8605 2.38974 38.7884 2.38974H36.901C36.8289 2.38972 36.7576 2.40389 36.691 2.43147C36.6245 2.45902 36.564 2.49944 36.5131 2.55039C36.4621 2.60133 36.4217 2.66181 36.3941 2.72837C36.3666 2.79494 36.3524 2.86627 36.3524 2.93833V6.22493C36.3524 6.29697 36.3666 6.36828 36.3942 6.43484C36.4217 6.50139 36.4622 6.56187 36.5131 6.61279C36.564 6.66372 36.6245 6.70413 36.6911 6.73168C36.7576 6.75924 36.829 6.77341 36.901 6.7734ZM38.2398 5.67633H37.4496V3.48692H38.2398V5.67633Z" fill="#1A1A1A"/>
<path fill-rule="evenodd" clip-rule="evenodd" d="M42.9616 29.7463H41.0742C40.9287 29.7463 40.7892 29.6885 40.6863 29.5856C40.5834 29.4827 40.5256 29.3432 40.5256 29.1977V25.9112C40.5256 25.7657 40.5834 25.6262 40.6863 25.5233C40.7892 25.4204 40.9287 25.3626 41.0742 25.3626H42.9616C43.1071 25.3626 43.2466 25.4204 43.3495 25.5233C43.4524 25.6262 43.5102 25.7657 43.5102 25.9112V29.1982C43.5101 29.3436 43.4522 29.483 43.3494 29.5858C43.2465 29.6886 43.107 29.7463 42.9616 29.7463ZM41.6228 28.6491H42.413V26.4598H41.6228V28.6491Z" fill="#1A1A1A"/>
<path fill-rule="evenodd" clip-rule="evenodd" d="M41.0742 6.7734H42.9616C43.0337 6.77341 43.105 6.75924 43.1715 6.73168C43.2381 6.70413 43.2986 6.66372 43.3495 6.61279C43.4005 6.56187 43.4409 6.50139 43.4684 6.43484C43.496 6.36828 43.5102 6.29697 43.5102 6.22493V2.93833C43.5102 2.79283 43.4524 2.6533 43.3495 2.55042C43.2466 2.44754 43.1071 2.38974 42.9616 2.38974H41.0742C40.9287 2.38974 40.7892 2.44754 40.6863 2.55042C40.5834 2.6533 40.5256 2.79283 40.5256 2.93833V6.22493C40.5256 6.29697 40.5398 6.36828 40.5674 6.43484C40.5949 6.50139 40.6353 6.56187 40.6863 6.61279C40.7372 6.66372 40.7977 6.70413 40.8643 6.73168C40.9308 6.75924 41.0021 6.77341 41.0742 6.7734ZM42.413 5.67633H41.6228V3.48692H42.413V5.67633Z" fill="#1A1A1A"/>
<path fill-rule="evenodd" clip-rule="evenodd" d="M47.1348 29.7463H45.2522C45.1802 29.7463 45.1088 29.7321 45.0423 29.7045C44.9757 29.6769 44.9153 29.6365 44.8643 29.5856C44.8134 29.5347 44.773 29.4742 44.7454 29.4076C44.7179 29.3411 44.7037 29.2697 44.7037 29.1977V25.9112C44.7037 25.8392 44.7179 25.7678 44.7454 25.7013C44.773 25.6347 44.8134 25.5743 44.8643 25.5233C44.9153 25.4724 44.9757 25.4319 45.0423 25.4044C45.1088 25.3768 45.1802 25.3626 45.2522 25.3626H47.1348C47.2803 25.3626 47.4199 25.4204 47.5227 25.5233C47.6256 25.6262 47.6834 25.7657 47.6834 25.9112V29.1982C47.6833 29.3436 47.6254 29.483 47.5226 29.5858C47.4197 29.6886 47.2802 29.7463 47.1348 29.7463ZM45.8008 28.6491H46.5864V26.4598H45.8008V28.6491Z" fill="#1A1A1A"/>
<path fill-rule="evenodd" clip-rule="evenodd" d="M45.2522 6.7734H47.1348C47.2068 6.77341 47.2782 6.75924 47.3447 6.73168C47.4113 6.70413 47.4718 6.66372 47.5227 6.61279C47.5737 6.56187 47.6141 6.50139 47.6417 6.43484C47.6692 6.36828 47.6834 6.29697 47.6834 6.22493V2.93833C47.6834 2.79283 47.6256 2.6533 47.5227 2.55042C47.4199 2.44754 47.2803 2.38974 47.1348 2.38974H45.2522C45.1802 2.38974 45.1088 2.40392 45.0423 2.4315C44.9757 2.45907 44.9153 2.49949 44.8643 2.55043C44.8134 2.60136 44.773 2.66184 44.7454 2.7284C44.7179 2.79496 44.7037 2.86629 44.7037 2.93833V6.22493C44.7037 6.29695 44.7179 6.36828 44.7454 6.43483C44.773 6.50139 44.8134 6.56185 44.8643 6.61278C44.9153 6.66372 44.9757 6.70411 45.0423 6.73167C45.1088 6.75923 45.1802 6.77341 45.2522 6.7734ZM46.5864 5.67633H45.8008V3.48692H46.5864V5.67633Z" fill="#1A1A1A"/>
<path fill-rule="evenodd" clip-rule="evenodd" d="M22.0477 29.6927H20.1651C20.093 29.6927 20.0217 29.6785 19.9552 29.6509C19.8886 29.6233 19.8281 29.583 19.7772 29.532C19.7263 29.4811 19.6859 29.4206 19.6583 29.354C19.6308 29.2875 19.6166 29.2161 19.6166 29.1441V25.8576C19.6166 25.7856 19.6308 25.7143 19.6583 25.6477C19.6859 25.5812 19.7263 25.5207 19.7772 25.4697C19.8281 25.4188 19.8886 25.3784 19.9552 25.3508C20.0217 25.3232 20.093 25.309 20.1651 25.309H22.0477C22.1932 25.309 22.3327 25.3668 22.4356 25.4697C22.5385 25.5726 22.5963 25.7121 22.5963 25.8576V29.1446C22.5961 29.29 22.5383 29.4294 22.4354 29.5322C22.3326 29.635 22.1931 29.6927 22.0477 29.6927ZM20.7137 28.5955H21.4992V26.4062H20.7137V28.5955Z" fill="#1A1A1A"/>
<path fill-rule="evenodd" clip-rule="evenodd" d="M20.1651 6.7198H22.0477C22.1197 6.71982 22.191 6.70565 22.2576 6.67809C22.3242 6.65053 22.3846 6.61013 22.4356 6.5592C22.4865 6.50827 22.5269 6.44779 22.5545 6.38125C22.5821 6.31469 22.5963 6.24337 22.5963 6.17133V2.88474C22.5963 2.73924 22.5385 2.5997 22.4356 2.49682C22.3327 2.39394 22.1932 2.33615 22.0477 2.33615H20.1651C20.093 2.33615 20.0217 2.35033 19.9552 2.3779C19.8886 2.40548 19.8281 2.44589 19.7772 2.49682C19.7263 2.54777 19.6859 2.60824 19.6583 2.6748C19.6308 2.74136 19.6166 2.8127 19.6166 2.88474V6.17133C19.6166 6.24336 19.6308 6.31469 19.6583 6.38124C19.6859 6.44779 19.7263 6.50826 19.7772 6.55919C19.8281 6.61013 19.8886 6.65052 19.9552 6.67807C20.0217 6.70563 20.093 6.71982 20.1651 6.7198ZM21.4992 5.62274H20.7137V3.43333H21.4992V5.62274Z" fill="#1A1A1A"/>
<path fill-rule="evenodd" clip-rule="evenodd" d="M26.2842 29.6927H24.3967C24.3247 29.6927 24.2533 29.6785 24.1868 29.651C24.1202 29.6234 24.0597 29.583 24.0088 29.5321C23.9578 29.4811 23.9174 29.4206 23.8899 29.3541C23.8623 29.2875 23.8481 29.2162 23.8481 29.1441V25.8576C23.8481 25.7856 23.8623 25.7142 23.8899 25.6477C23.9174 25.5811 23.9578 25.5206 24.0088 25.4697C24.0597 25.4187 24.1202 25.3783 24.1868 25.3508C24.2533 25.3232 24.3247 25.309 24.3967 25.309H26.2842C26.3562 25.309 26.4275 25.3232 26.4941 25.3508C26.5606 25.3784 26.6211 25.4188 26.672 25.4697C26.723 25.5207 26.7634 25.5812 26.7909 25.6477C26.8185 25.7143 26.8326 25.7856 26.8326 25.8576V29.1446C26.8325 29.29 26.7747 29.4294 26.6719 29.5322C26.569 29.6349 26.4296 29.6927 26.2842 29.6927ZM24.9453 28.5955H25.7356V26.4062H24.9453V28.5955Z" fill="#1A1A1A"/>
<path fill-rule="evenodd" clip-rule="evenodd" d="M24.3967 6.7198H26.2842C26.3562 6.71982 26.4275 6.70563 26.4941 6.67807C26.5606 6.65052 26.6211 6.61013 26.672 6.55919C26.723 6.50826 26.7634 6.44779 26.7909 6.38124C26.8185 6.31469 26.8326 6.24336 26.8326 6.17133V2.88474C26.8326 2.8127 26.8185 2.74136 26.7909 2.6748C26.7634 2.60824 26.723 2.54777 26.672 2.49684C26.6211 2.44589 26.5606 2.40548 26.4941 2.3779C26.4275 2.35033 26.3562 2.33615 26.2842 2.33615H24.3967C24.3247 2.33613 24.2533 2.3503 24.1868 2.37787C24.1202 2.40543 24.0597 2.44585 24.0088 2.49679C23.9578 2.54774 23.9174 2.60821 23.8899 2.67477C23.8623 2.74135 23.8481 2.81268 23.8481 2.88474V6.17133C23.8481 6.24337 23.8623 6.31469 23.8899 6.38125C23.9175 6.44779 23.9579 6.50827 24.0088 6.5592C24.0598 6.61013 24.1203 6.65053 24.1868 6.67809C24.2534 6.70565 24.3247 6.71982 24.3967 6.7198ZM25.7356 5.62274H24.9453V3.43333H25.7356V5.62274Z" fill="#1A1A1A"/>
<path fill-rule="evenodd" clip-rule="evenodd" d="M30.4574 29.6927H28.5699C28.4244 29.6927 28.2849 29.6349 28.182 29.532C28.0791 29.4291 28.0213 29.2896 28.0213 29.1441V25.8576C28.0213 25.7121 28.0791 25.5726 28.182 25.4697C28.2849 25.3668 28.4244 25.309 28.5699 25.309H30.4574C30.6029 25.309 30.7424 25.3668 30.8453 25.4697C30.9482 25.5726 31.0059 25.7121 31.0059 25.8576V29.1446C31.0058 29.29 30.948 29.4294 30.8451 29.5322C30.7422 29.635 30.6028 29.6927 30.4574 29.6927ZM29.1185 28.5955H29.9088V26.4062H29.1185V28.5955Z" fill="#1A1A1A"/>
<path fill-rule="evenodd" clip-rule="evenodd" d="M28.5699 6.7198H30.4574C30.5294 6.71982 30.6007 6.70565 30.6673 6.67809C30.7339 6.65053 30.7943 6.61013 30.8453 6.5592C30.8962 6.50827 30.9366 6.44779 30.9642 6.38125C30.9918 6.31469 31.0059 6.24337 31.0059 6.17133V2.88474C31.0059 2.73924 30.9482 2.5997 30.8453 2.49682C30.7424 2.39394 30.6029 2.33615 30.4574 2.33615H28.5699C28.4244 2.33615 28.2849 2.39394 28.182 2.49682C28.0791 2.5997 28.0213 2.73924 28.0213 2.88474V6.17133C28.0213 6.24337 28.0355 6.31469 28.0631 6.38125C28.0907 6.44779 28.1311 6.50827 28.182 6.5592C28.233 6.61013 28.2934 6.65053 28.36 6.67809C28.4266 6.70565 28.4979 6.71982 28.5699 6.7198ZM29.9088 5.62274H29.1185V3.43333H29.9088V5.62274Z" fill="#1A1A1A"/>
<path fill-rule="evenodd" clip-rule="evenodd" d="M34.6306 29.6927H32.7479C32.6759 29.6927 32.6046 29.6785 32.538 29.6509C32.4715 29.6233 32.411 29.583 32.3601 29.532C32.3092 29.4811 32.2687 29.4206 32.2412 29.354C32.2136 29.2875 32.1995 29.2161 32.1995 29.1441V25.8576C32.1995 25.7856 32.2136 25.7143 32.2412 25.6477C32.2687 25.5812 32.3092 25.5207 32.3601 25.4697C32.411 25.4188 32.4715 25.3784 32.538 25.3508C32.6046 25.3232 32.6759 25.309 32.7479 25.309H34.6306C34.7761 25.309 34.9156 25.3668 35.0185 25.4697C35.1213 25.5726 35.1792 25.7121 35.1792 25.8576V29.1446C35.179 29.29 35.1212 29.4294 35.0183 29.5322C34.9154 29.635 34.776 29.6927 34.6306 29.6927ZM33.2965 28.5955H34.0821V26.4062H33.2965V28.5955Z" fill="#1A1A1A"/>
<path fill-rule="evenodd" clip-rule="evenodd" d="M32.7479 6.7198H34.6306C34.7026 6.71982 34.7739 6.70565 34.8405 6.67809C34.907 6.65053 34.9675 6.61013 35.0185 6.5592C35.0694 6.50827 35.1098 6.44779 35.1374 6.38125C35.165 6.31469 35.1792 6.24337 35.1792 6.17133V2.88474C35.1792 2.73924 35.1213 2.5997 35.0185 2.49682C34.9156 2.39394 34.7761 2.33615 34.6306 2.33615H32.7479C32.6759 2.33615 32.6046 2.35033 32.538 2.3779C32.4715 2.40548 32.411 2.44589 32.3601 2.49682C32.3092 2.54777 32.2687 2.60824 32.2412 2.6748C32.2136 2.74136 32.1995 2.8127 32.1995 2.88474V6.17133C32.1995 6.24336 32.2136 6.31469 32.2412 6.38124C32.2687 6.44779 32.3092 6.50826 32.3601 6.55919C32.411 6.61013 32.4715 6.65052 32.538 6.67807C32.6046 6.70563 32.6759 6.71982 32.7479 6.7198ZM34.0821 5.62274H33.2965V3.43333H34.0821V5.62274Z" fill="#1A1A1A"/>
<path fill-rule="evenodd" clip-rule="evenodd" d="M5.30777 29.6927H3.42515C3.35311 29.6927 3.28178 29.6785 3.21523 29.6509C3.14867 29.6233 3.08821 29.583 3.03729 29.532C2.98636 29.4811 2.94595 29.4206 2.9184 29.354C2.89084 29.2875 2.87667 29.2161 2.87668 29.1441V25.8576C2.87667 25.7856 2.89084 25.7143 2.9184 25.6477C2.94595 25.5812 2.98636 25.5207 3.03729 25.4697C3.08821 25.4188 3.14867 25.3784 3.21523 25.3508C3.28178 25.3232 3.35311 25.309 3.42515 25.309H5.30777C5.45327 25.309 5.59281 25.3668 5.69569 25.4697C5.79855 25.5726 5.85636 25.7121 5.85636 25.8576V29.1446C5.85623 29.29 5.79837 29.4294 5.69551 29.5322C5.59264 29.635 5.45318 29.6927 5.30777 29.6927ZM3.97375 28.5955H4.7593V26.4062H3.97375V28.5955Z" fill="#1A1A1A"/>
<path fill-rule="evenodd" clip-rule="evenodd" d="M3.42515 6.7198H5.30777C5.3798 6.71982 5.45113 6.70565 5.51769 6.67809C5.58425 6.65053 5.64473 6.61013 5.69567 6.5592C5.74662 6.50827 5.78703 6.44779 5.81459 6.38125C5.84216 6.31469 5.85636 6.24337 5.85636 6.17133V2.88474C5.85636 2.73924 5.79855 2.5997 5.69569 2.49682C5.59281 2.39394 5.45327 2.33615 5.30777 2.33615H3.42515C3.35311 2.33615 3.28178 2.35033 3.21523 2.3779C3.14867 2.40548 3.08821 2.44589 3.03729 2.49682C2.98636 2.54777 2.94595 2.60824 2.9184 2.6748C2.89084 2.74136 2.87667 2.8127 2.87668 2.88474V6.17133C2.87667 6.24336 2.89084 6.31469 2.9184 6.38124C2.94595 6.44779 2.98636 6.50826 3.03729 6.55919C3.08823 6.61013 3.14869 6.65052 3.21523 6.67807C3.28179 6.70563 3.35311 6.71982 3.42515 6.7198ZM4.7593 5.62274H3.97375V3.43333H4.7593V5.62274Z" fill="#1A1A1A"/>
<path fill-rule="evenodd" clip-rule="evenodd" d="M9.54426 29.6927H7.65682C7.58477 29.6927 7.51343 29.6785 7.44687 29.651C7.3803 29.6234 7.31982 29.583 7.26888 29.5321C7.21793 29.4811 7.17752 29.4206 7.14996 29.3541C7.1224 29.2875 7.10822 29.2162 7.10823 29.1441V25.8576C7.10822 25.7856 7.1224 25.7142 7.14996 25.6477C7.17752 25.5811 7.21793 25.5206 7.26888 25.4697C7.31982 25.4187 7.3803 25.3783 7.44687 25.3508C7.51343 25.3232 7.58477 25.309 7.65682 25.309H9.54426C9.61629 25.309 9.68762 25.3232 9.75416 25.3508C9.82072 25.3784 9.88119 25.4188 9.93211 25.4697C9.98304 25.5207 10.0234 25.5812 10.051 25.6477C10.0786 25.7143 10.0927 25.7856 10.0927 25.8576V29.1446C10.0926 29.29 10.0348 29.4294 9.93195 29.5322C9.8291 29.6349 9.68965 29.6927 9.54426 29.6927ZM8.20541 28.5955H8.99567V26.4062H8.20541V28.5955Z" fill="#1A1A1A"/>
<path fill-rule="evenodd" clip-rule="evenodd" d="M7.65682 6.7198H9.54426C9.61629 6.71982 9.6876 6.70563 9.75416 6.67807C9.82071 6.65052 9.88117 6.61013 9.93211 6.55919C9.98304 6.50826 10.0234 6.44779 10.051 6.38124C10.0786 6.31469 10.0927 6.24336 10.0927 6.17133V2.88474C10.0927 2.8127 10.0786 2.74136 10.051 2.6748C10.0234 2.60824 9.98304 2.54777 9.93211 2.49684C9.88119 2.44589 9.82072 2.40548 9.75416 2.3779C9.68762 2.35033 9.61629 2.33615 9.54426 2.33615H7.65682C7.58477 2.33613 7.51343 2.3503 7.44687 2.37787C7.3803 2.40543 7.31982 2.44585 7.26888 2.49679C7.21793 2.54774 7.17752 2.60821 7.14996 2.67477C7.1224 2.74135 7.10822 2.81268 7.10823 2.88474V6.17133C7.10823 6.24337 7.12242 6.31469 7.14999 6.38125C7.17756 6.44779 7.21798 6.50827 7.26892 6.5592C7.31985 6.61013 7.38034 6.65053 7.4469 6.67809C7.51345 6.70565 7.58478 6.71982 7.65682 6.7198ZM8.99567 5.62274H8.20541V3.43333H8.99567V5.62274Z" fill="#1A1A1A"/>
<path fill-rule="evenodd" clip-rule="evenodd" d="M13.7174 29.6927H11.83C11.6845 29.6927 11.545 29.6349 11.4421 29.532C11.3392 29.4291 11.2814 29.2896 11.2814 29.1441V25.8576C11.2814 25.7121 11.3392 25.5726 11.4421 25.4697C11.545 25.3668 11.6845 25.309 11.83 25.309H13.7174C13.8629 25.309 14.0025 25.3668 14.1054 25.4697C14.2082 25.5726 14.266 25.7121 14.266 25.8576V29.1446C14.2659 29.29 14.208 29.4294 14.1052 29.5322C14.0023 29.635 13.8628 29.6927 13.7174 29.6927ZM12.3786 28.5955H13.1688V26.4062H12.3786V28.5955Z" fill="#1A1A1A"/>
<path fill-rule="evenodd" clip-rule="evenodd" d="M11.83 6.7198H13.7174C13.7895 6.71982 13.8608 6.70565 13.9274 6.67809C13.9939 6.65053 14.0544 6.61013 14.1054 6.5592C14.1563 6.50827 14.1967 6.44779 14.2243 6.38125C14.2353 6.35476 14.2441 6.32754 14.2508 6.2998C14.2609 6.25783 14.266 6.2147 14.266 6.17133V2.88474C14.266 2.73924 14.2082 2.5997 14.1054 2.49682C14.0025 2.39394 13.8629 2.33615 13.7174 2.33615H11.83C11.6845 2.33615 11.545 2.39394 11.4421 2.49682C11.3392 2.5997 11.2814 2.73924 11.2814 2.88474V6.17133C11.2814 6.24337 11.2956 6.31469 11.3232 6.38125C11.3508 6.44779 11.3912 6.50827 11.4421 6.5592C11.493 6.61013 11.5535 6.65053 11.6201 6.67809C11.6866 6.70565 11.758 6.71982 11.83 6.7198ZM13.1688 5.62274H12.3786V3.43333H13.1688V5.62274Z" fill="#1A1A1A"/>
<path fill-rule="evenodd" clip-rule="evenodd" d="M17.8907 29.6927H16.008C15.936 29.6927 15.8647 29.6785 15.7981 29.6509C15.7316 29.6233 15.6711 29.583 15.6202 29.532C15.5692 29.4811 15.5288 29.4206 15.5013 29.354C15.4737 29.2875 15.4595 29.2161 15.4596 29.1441V25.8576C15.4595 25.7856 15.4737 25.7143 15.5013 25.6477C15.5288 25.5812 15.5692 25.5207 15.6202 25.4697C15.6711 25.4188 15.7316 25.3784 15.7981 25.3508C15.8647 25.3232 15.936 25.309 16.008 25.309H17.8907C18.0361 25.309 18.1757 25.3668 18.2786 25.4697C18.3814 25.5726 18.4392 25.7121 18.4392 25.8576V29.1446C18.4391 29.29 18.3813 29.4294 18.2784 29.5322C18.1755 29.635 18.0361 29.6927 17.8907 29.6927ZM16.5566 28.5955H17.3422V26.4062H16.5566V28.5955Z" fill="#1A1A1A"/>
<path fill-rule="evenodd" clip-rule="evenodd" d="M16.008 6.7198H17.8907C17.9627 6.71982 18.034 6.70565 18.1006 6.67809C18.1671 6.65053 18.2276 6.61013 18.2786 6.5592C18.3295 6.50827 18.3699 6.44779 18.3975 6.38125C18.425 6.31469 18.4392 6.24337 18.4392 6.17133V2.88474C18.4392 2.73924 18.3814 2.5997 18.2786 2.49682C18.1757 2.39394 18.0361 2.33615 17.8907 2.33615H16.008C15.936 2.33615 15.8647 2.35033 15.7981 2.3779C15.7316 2.40548 15.6711 2.44589 15.6202 2.49682C15.5692 2.54777 15.5288 2.60824 15.5013 2.6748C15.4737 2.74136 15.4595 2.8127 15.4596 2.88474V6.17133C15.4595 6.24336 15.4737 6.31469 15.5013 6.38124C15.5288 6.44779 15.5692 6.50826 15.6202 6.55919C15.6711 6.61013 15.7316 6.65052 15.7981 6.67807C15.8647 6.70563 15.936 6.71982 16.008 6.7198ZM17.3422 5.62274H16.5566V3.43333H17.3422V5.62274Z" fill="#1A1A1A"/>
<path fill-rule="evenodd" clip-rule="evenodd" d="M51.3123 6.7734H49.4249C49.3529 6.77341 49.2816 6.75923 49.215 6.73167C49.1485 6.70411 49.088 6.66372 49.037 6.61278C48.9861 6.56185 48.9457 6.50139 48.9182 6.43483C48.8906 6.36828 48.8764 6.29695 48.8764 6.22493V2.93833C48.8764 2.86629 48.8906 2.79496 48.9182 2.7284C48.9457 2.66184 48.9861 2.60136 49.037 2.55043C49.088 2.49949 49.1484 2.45907 49.215 2.4315C49.2815 2.40392 49.3529 2.38974 49.4249 2.38974H51.3123C51.4578 2.38974 51.5974 2.44754 51.7003 2.55042C51.8031 2.6533 51.8609 2.79283 51.8609 2.93833V6.22493C51.8609 6.26564 51.8564 6.30614 51.8475 6.34567C51.8406 6.37607 51.8312 6.4059 51.8192 6.43484C51.7916 6.50139 51.7512 6.56187 51.7002 6.61279C51.6493 6.66372 51.5888 6.70413 51.5223 6.73168C51.4557 6.75924 51.3844 6.77341 51.3123 6.7734ZM49.974 5.67633H50.7635V3.48692H49.974V5.67633Z" fill="#1A1A1A"/>
<path fill-rule="evenodd" clip-rule="evenodd" d="M53.5986 6.7734H55.486C55.5581 6.77341 55.6294 6.75923 55.6959 6.73167C55.7625 6.70411 55.8229 6.66372 55.8739 6.61278C55.9248 6.56185 55.9652 6.50139 55.9928 6.43483C56.0203 6.36828 56.0345 6.29695 56.0345 6.22493V2.93833C56.0345 2.86629 56.0203 2.79496 55.9928 2.7284C55.9652 2.66184 55.9248 2.60136 55.8739 2.55043C55.823 2.49949 55.7625 2.45907 55.6959 2.4315C55.6294 2.40392 55.5581 2.38974 55.486 2.38974H53.5986C53.4531 2.38974 53.3136 2.44754 53.2107 2.55042C53.1078 2.6533 53.05 2.79283 53.05 2.93833V6.22493C53.05 6.29697 53.0642 6.36828 53.0918 6.43484C53.1193 6.50139 53.1598 6.56187 53.2107 6.61279C53.2616 6.66372 53.3221 6.70413 53.3887 6.73168C53.4552 6.75924 53.5266 6.77341 53.5986 6.7734ZM54.9372 5.67633H54.1477V3.48692H54.9372V5.67633Z" fill="#1A1A1A"/>
<path d="M1.09435 29.788C1.16638 29.7881 1.23771 29.7739 1.30426 29.7463C1.37081 29.7188 1.43128 29.6784 1.48221 29.6274C1.53314 29.5765 1.57354 29.516 1.6011 29.4495C1.62866 29.3829 1.64283 29.3116 1.64282 29.2396V25.953C1.64283 25.8809 1.62866 25.8096 1.6011 25.743C1.57355 25.6765 1.53315 25.616 1.48222 25.5651C1.43129 25.5141 1.37082 25.4737 1.30427 25.4461C1.23772 25.4186 1.16639 25.4044 1.09435 25.4044H0.125594V26.5016H0.545764V28.691H0.125594V29.788H1.09435Z" fill="#1A1A1A"/>
<path d="M1.03279 6.77716C1.10482 6.77718 1.17615 6.76299 1.2427 6.73543C1.30925 6.70787 1.36972 6.66749 1.42065 6.61654C1.47158 6.56561 1.51198 6.50515 1.53954 6.43859C1.5671 6.37205 1.58127 6.30071 1.58126 6.22869V2.94209C1.58127 2.87005 1.5671 2.79872 1.53954 2.73216C1.51199 2.6656 1.47159 2.60512 1.42066 2.5542C1.36973 2.50325 1.30926 2.46283 1.24271 2.43526C1.17616 2.40769 1.10483 2.3935 1.03279 2.3935H0.064034V3.49069H0.484204V5.6801H0.064034V6.77716H1.03279Z" fill="#1A1A1A"/>
</g>
</g>
</svg>
