<svg width="79" height="34" viewBox="0 0 79 34" fill="none" xmlns="http://www.w3.org/2000/svg">
<g id="Filme">
<g id="Union">
<path d="M14.1708 33.3277H0.720284C0.647558 33.3288 0.575342 33.3154 0.507835 33.2883C0.440328 33.2612 0.378881 33.221 0.327066 33.17C0.275251 33.1189 0.234106 33.0581 0.20602 32.991C0.177933 32.9239 0.163471 32.8519 0.163471 32.7792C0.163471 32.7065 0.177933 32.6344 0.20602 32.5673C0.234106 32.5002 0.275251 32.4394 0.327066 32.3884C0.378881 32.3373 0.440328 32.2971 0.507835 32.27C0.575342 32.2429 0.647558 32.2296 0.720284 32.2307H14.1708C14.5093 32.2302 14.8339 32.0955 15.0733 31.8561C15.3127 31.6167 15.4474 31.2921 15.4478 30.9535V22.6684C15.4485 22.0401 15.6983 21.4378 16.1425 20.9935C16.5867 20.5492 17.1891 20.2993 17.8173 20.2985H24.8167C25.1553 20.2981 25.4799 20.1634 25.7194 19.924C25.9588 19.6846 26.0935 19.3599 26.0939 19.0213V2.61353C26.0935 2.27489 25.9589 1.95022 25.7194 1.71074C25.48 1.47126 25.1554 1.33654 24.8167 1.33612H0.720284C0.647558 1.33721 0.575342 1.32382 0.507835 1.29674C0.440328 1.26967 0.378881 1.22945 0.327066 1.1784C0.275251 1.12735 0.234106 1.06651 0.20602 0.999422C0.177933 0.932336 0.163471 0.860325 0.163471 0.787591C0.163471 0.714857 0.177933 0.642846 0.20602 0.575759C0.234106 0.508657 0.275251 0.447819 0.327066 0.396785C0.378881 0.345736 0.440328 0.305499 0.507835 0.278423C0.575342 0.251347 0.647558 0.237975 0.720284 0.239059H24.8167C25.4463 0.239752 26.0498 0.490134 26.4949 0.935302C26.94 1.38045 27.1903 1.98401 27.191 2.61353V19.0213C27.1903 19.6508 26.9399 20.2543 26.4948 20.6994C26.0497 21.1445 25.4462 21.3949 24.8167 21.3956H17.8173C17.4799 21.396 17.1564 21.5302 16.9179 21.7689C16.6793 22.0075 16.5452 22.331 16.5449 22.6684V30.9535C16.5442 31.5829 16.2939 32.1864 15.8488 32.6315C15.4037 33.0767 14.8002 33.327 14.1708 33.3277Z" fill="#1A1A1A"/>
<path fill-rule="evenodd" clip-rule="evenodd" d="M5.60491 29.7463H3.71748C3.64543 29.7463 3.57409 29.7321 3.50752 29.7045C3.44096 29.677 3.38048 29.6366 3.32953 29.5856C3.27859 29.5347 3.23818 29.4742 3.21062 29.4076C3.18305 29.3411 3.16887 29.2697 3.16889 29.1977V25.9112C3.16887 25.8392 3.18305 25.7678 3.21062 25.7013C3.23818 25.6347 3.27859 25.5742 3.32953 25.5233C3.38048 25.4723 3.44096 25.4319 3.50752 25.4044C3.57409 25.3768 3.64543 25.3626 3.71748 25.3626H5.60491C5.67694 25.3626 5.74827 25.3768 5.81482 25.4044C5.88137 25.4319 5.94184 25.4724 5.99277 25.5233C6.0437 25.5743 6.0841 25.6347 6.11166 25.7013C6.13921 25.7678 6.15339 25.8392 6.15337 25.9112V29.1982C6.15327 29.3436 6.09545 29.483 5.9926 29.5858C5.88975 29.6885 5.75031 29.7463 5.60491 29.7463ZM4.26607 28.6491H5.05632V26.4598H4.26607V28.6491Z" fill="#1A1A1A"/>
<path fill-rule="evenodd" clip-rule="evenodd" d="M3.71748 6.7734H5.60491C5.67694 6.77341 5.74826 6.75923 5.81482 6.73167C5.88137 6.70411 5.94183 6.66372 5.99276 6.61278C6.0437 6.56185 6.0841 6.50139 6.11165 6.43483C6.13921 6.36828 6.15339 6.29695 6.15337 6.22493V2.93833C6.15339 2.86629 6.13921 2.79496 6.11166 2.7284C6.0841 2.66184 6.0437 2.60136 5.99277 2.55043C5.94184 2.49949 5.88137 2.45907 5.81482 2.4315C5.74827 2.40392 5.67694 2.38974 5.60491 2.38974H3.71748C3.64543 2.38972 3.57409 2.40389 3.50752 2.43147C3.44096 2.45902 3.38048 2.49944 3.32953 2.55039C3.27859 2.60133 3.23818 2.66181 3.21062 2.72837C3.18305 2.79494 3.16887 2.86627 3.16889 2.93833V6.22493C3.16889 6.29697 3.18308 6.36828 3.21065 6.43484C3.23822 6.50139 3.27863 6.56187 3.32957 6.61279C3.38052 6.66372 3.44099 6.70413 3.50755 6.73168C3.57411 6.75924 3.64544 6.77341 3.71748 6.7734ZM5.05632 5.67633H4.26607V3.48692H5.05632V5.67633Z" fill="#1A1A1A"/>
<path fill-rule="evenodd" clip-rule="evenodd" d="M9.7781 29.7463H7.89067C7.74518 29.7463 7.60564 29.6885 7.50276 29.5856C7.39988 29.4827 7.34208 29.3432 7.34208 29.1977V25.9112C7.34208 25.7657 7.39988 25.6262 7.50276 25.5233C7.60564 25.4204 7.74518 25.3626 7.89067 25.3626H9.7781C9.9236 25.3626 10.0631 25.4204 10.166 25.5233C10.2689 25.6262 10.3267 25.7657 10.3267 25.9112V29.1982C10.3266 29.3436 10.2687 29.483 10.1658 29.5858C10.063 29.6886 9.92351 29.7463 9.7781 29.7463ZM8.43926 28.6491H9.22951V26.4598H8.43926V28.6491Z" fill="#1A1A1A"/>
<path fill-rule="evenodd" clip-rule="evenodd" d="M7.89067 6.7734H9.7781C9.85014 6.77341 9.92147 6.75924 9.98803 6.73168C10.0546 6.70413 10.1151 6.66372 10.166 6.61279C10.217 6.56187 10.2574 6.50139 10.2849 6.43484C10.3125 6.36828 10.3267 6.29697 10.3267 6.22493V2.93833C10.3267 2.79283 10.2689 2.6533 10.166 2.55042C10.0631 2.44754 9.9236 2.38974 9.7781 2.38974H7.89067C7.74518 2.38974 7.60564 2.44754 7.50276 2.55042C7.39988 2.6533 7.34208 2.79283 7.34208 2.93833V6.22493C7.34208 6.29697 7.35628 6.36828 7.38385 6.43484C7.41142 6.50139 7.45183 6.56187 7.50277 6.61279C7.55371 6.66372 7.61419 6.70413 7.68074 6.73168C7.7473 6.75924 7.81863 6.77341 7.89067 6.7734ZM9.22951 5.67633H8.43926V3.48692H9.22951V5.67633Z" fill="#1A1A1A"/>
<path fill-rule="evenodd" clip-rule="evenodd" d="M13.9513 29.7463H12.0687C11.9966 29.7463 11.9253 29.7321 11.8588 29.7045C11.7922 29.6769 11.7317 29.6365 11.6808 29.5856C11.6299 29.5347 11.5895 29.4742 11.5619 29.4076C11.5344 29.3411 11.5202 29.2697 11.5202 29.1977V25.9112C11.5202 25.8392 11.5344 25.7678 11.5619 25.7013C11.5895 25.6347 11.6299 25.5743 11.6808 25.5233C11.7317 25.4724 11.7922 25.4319 11.8588 25.4044C11.9253 25.3768 11.9966 25.3626 12.0687 25.3626H13.9513C14.0968 25.3626 14.2363 25.4204 14.3392 25.5233C14.4421 25.6262 14.4999 25.7657 14.4999 25.9112V29.1982C14.4998 29.3436 14.4419 29.483 14.339 29.5858C14.2362 29.6886 14.0967 29.7463 13.9513 29.7463ZM12.6173 28.6491H13.4028V26.4598H12.6173V28.6491Z" fill="#1A1A1A"/>
<path fill-rule="evenodd" clip-rule="evenodd" d="M12.0687 6.7734H13.9513C14.0233 6.77341 14.0947 6.75924 14.1612 6.73168C14.2278 6.70413 14.2883 6.66372 14.3392 6.61279C14.3901 6.56187 14.4306 6.50139 14.4581 6.43484C14.4857 6.36828 14.4999 6.29697 14.4999 6.22493V2.93833C14.4999 2.79283 14.4421 2.6533 14.3392 2.55042C14.2363 2.44754 14.0968 2.38974 13.9513 2.38974H12.0687C11.9966 2.38974 11.9253 2.40392 11.8588 2.4315C11.7922 2.45907 11.7317 2.49949 11.6808 2.55043C11.6299 2.60136 11.5895 2.66184 11.5619 2.7284C11.5344 2.79496 11.5202 2.86629 11.5202 2.93833V6.22493C11.5202 6.29695 11.5344 6.36828 11.5619 6.43483C11.5895 6.50139 11.6299 6.56185 11.6808 6.61278C11.7318 6.66372 11.7922 6.70411 11.8588 6.73167C11.9253 6.75923 11.9967 6.77341 12.0687 6.7734ZM13.4028 5.67633H12.6173V3.48692H13.4028V5.67633Z" fill="#1A1A1A"/>
<path fill-rule="evenodd" clip-rule="evenodd" d="M18.1288 6.7734H16.2414C16.1694 6.77341 16.098 6.75923 16.0315 6.73167C15.9649 6.70411 15.9045 6.66372 15.8535 6.61278C15.8026 6.56185 15.7622 6.50139 15.7346 6.43483C15.7071 6.36828 15.6929 6.29695 15.6929 6.22493V2.93833C15.6929 2.86629 15.7071 2.79496 15.7346 2.7284C15.7622 2.66184 15.8026 2.60136 15.8535 2.55043C15.9044 2.49949 15.9649 2.45907 16.0315 2.4315C16.098 2.40392 16.1693 2.38974 16.2414 2.38974H18.1288C18.2743 2.38974 18.4138 2.44754 18.5167 2.55042C18.6196 2.6533 18.6774 2.79283 18.6774 2.93833V6.22493C18.6774 6.29697 18.6632 6.36828 18.6356 6.43484C18.6081 6.50139 18.5677 6.56187 18.5167 6.61279C18.4658 6.66372 18.4053 6.70413 18.3387 6.73168C18.2722 6.75924 18.2009 6.77341 18.1288 6.7734ZM16.7905 5.67633H17.58V3.48692H16.7905V5.67633Z" fill="#1A1A1A"/>
<path fill-rule="evenodd" clip-rule="evenodd" d="M20.4151 6.7734H22.3025C22.3745 6.77341 22.4459 6.75923 22.5124 6.73167C22.579 6.70411 22.6394 6.66372 22.6904 6.61278C22.7413 6.56185 22.7817 6.50139 22.8093 6.43483C22.8368 6.36828 22.851 6.29695 22.851 6.22493V2.93833C22.851 2.86629 22.8368 2.79496 22.8093 2.7284C22.7817 2.66184 22.7413 2.60136 22.6904 2.55043C22.6394 2.49949 22.579 2.45907 22.5124 2.4315C22.4459 2.40392 22.3745 2.38974 22.3025 2.38974H20.4151C20.2696 2.38974 20.13 2.44754 20.0272 2.55042C19.9243 2.6533 19.8665 2.79283 19.8665 2.93833V6.22493C19.8665 6.29697 19.8807 6.36828 19.9082 6.43484C19.9358 6.50139 19.9762 6.56187 20.0272 6.61279C20.0781 6.66372 20.1386 6.70413 20.2051 6.73168C20.2717 6.75924 20.343 6.77341 20.4151 6.7734ZM21.7537 5.67633H20.9642V3.48692H21.7537V5.67633Z" fill="#1A1A1A"/>
<path d="M1.43977 29.788C1.5118 29.7881 1.58313 29.7739 1.64968 29.7463C1.71623 29.7188 1.7767 29.6784 1.82763 29.6274C1.87856 29.5765 1.91896 29.516 1.94652 29.4495C1.97407 29.3829 1.98825 29.3116 1.98823 29.2396V25.953C1.98825 25.8809 1.97408 25.8096 1.94652 25.743C1.91897 25.6765 1.87857 25.616 1.82764 25.5651C1.7767 25.5141 1.71624 25.4737 1.64969 25.4461C1.58313 25.4186 1.51181 25.4044 1.43977 25.4044H0.100928V26.5016H0.891183V28.691H0.100928V29.788H1.43977Z" fill="#1A1A1A"/>
<path d="M1.37821 6.77716C1.45024 6.77717 1.52157 6.76299 1.58812 6.73543C1.65467 6.70787 1.71514 6.66749 1.76607 6.61654C1.817 6.56561 1.8574 6.50515 1.88496 6.43859C1.91251 6.37205 1.92669 6.30071 1.92667 6.22869V2.94209C1.92669 2.87005 1.91252 2.79872 1.88496 2.73216C1.85741 2.6656 1.81701 2.60512 1.76608 2.5542C1.71514 2.50325 1.65468 2.46283 1.58813 2.43526C1.52157 2.40769 1.45025 2.3935 1.37821 2.3935H0.0393677V3.49069H0.829623V5.6801H0.0393677V6.77716H1.37821Z" fill="#1A1A1A"/>
</g>
</g>
</svg>
